<?xml version="1.0" encoding="utf-8"?>
<svg xmlns="http://www.w3.org/2000/svg" viewBox="-290.7194 -191.2158 160.5194 144.5632" width="160.519px" height="144.563px">
  <path d="M -246.37 -191.17 C -245.38 -191.18 -244.38 -191.19 -243.35 -191.19 C -240.05 -191.2 -236.76 -191.19 -233.46 -191.19 C -231.17 -191.19 -228.88 -191.19 -226.58 -191.19 C -221.78 -191.2 -216.97 -191.19 -212.17 -191.18 C -206.01 -191.16 -199.85 -191.17 -193.7 -191.19 C -188.96 -191.2 -184.23 -191.2 -179.5 -191.19 C -177.23 -191.19 -174.96 -191.19 -172.69 -191.19 C -169.51 -191.2 -166.34 -191.19 -163.16 -191.17 C -162.22 -191.18 -161.29 -191.19 -160.32 -191.19 C -153.97 -191.13 -150.59 -190.06 -145.91 -185.59 C -143.69 -181.94 -143.68 -179.04 -143.95 -174.91 C -144.02 -173.68 -144.02 -173.68 -144.09 -172.42 C -145.18 -158.87 -148.45 -145.47 -151.29 -132.2 C -151.46 -131.44 -151.62 -130.68 -151.78 -129.9 C -151.94 -129.19 -152.1 -128.47 -152.26 -127.73 C -152.39 -127.11 -152.53 -126.49 -152.67 -125.85 C -153.38 -123.13 -154.31 -120.46 -155.2 -117.79 C -196.12 -117.79 -237.04 -117.79 -279.2 -117.79 C -274.57 -140.97 -274.57 -140.97 -272.55 -149.15 C -272.2 -150.56 -272.2 -150.56 -271.85 -151.98 C -271.38 -153.91 -270.9 -155.84 -270.42 -157.76 C -269.69 -160.7 -268.98 -163.65 -268.27 -166.6 C -267.8 -168.49 -267.33 -170.38 -266.86 -172.28 C -266.65 -173.15 -266.44 -174.02 -266.23 -174.91 C -264.77 -180.67 -262.79 -184.99 -258.69 -189.42 C -254.74 -191.59 -250.81 -191.2 -246.37 -191.17 Z" fill="#FAFAFA" style="stroke-width: 1;" transform="matrix(1, 0, 0, 1, 0, 5.684341886080802e-14)"/>
  <path d="M -281.2 -111.79 C -239.95 -111.79 -198.7 -111.79 -156.2 -111.79 C -168.23 -53.674 -168.23 -53.674 -174.7 -48.974 C -179.67 -46.62 -184.34 -46.644 -189.76 -46.657 C -190.63 -46.656 -191.5 -46.654 -192.39 -46.653 C -195.29 -46.651 -198.18 -46.657 -201.08 -46.665 C -202.07 -46.667 -203.07 -46.67 -204.09 -46.672 C -210.62 -46.689 -217.14 -46.724 -223.67 -46.767 C -227.3 -46.791 -230.94 -46.81 -234.57 -46.828 C -240.74 -46.864 -246.92 -46.924 -253.1 -47 C -255.5 -47.027 -257.89 -47.047 -260.29 -47.061 C -263.67 -47.082 -267.05 -47.128 -270.42 -47.181 C -271.43 -47.182 -272.43 -47.183 -273.47 -47.185 C -279.17 -47.305 -282.79 -47.798 -287.2 -51.794 C -296.83 -67.834 -283.94 -99.32 -281.2 -111.79 Z" fill="#FDFDFD" style="stroke-width: 1;" transform="matrix(1, 0, 0, 1, 0, 5.684341886080802e-14)"/>
  <path d="M -241.5 -175.91 C -240.68 -175.91 -239.86 -175.9 -239.01 -175.9 C -238.15 -175.9 -237.29 -175.9 -236.41 -175.9 C -233.56 -175.9 -230.71 -175.89 -227.86 -175.88 C -225.88 -175.88 -223.91 -175.88 -221.94 -175.88 C -216.74 -175.88 -211.54 -175.87 -206.34 -175.85 C -201.04 -175.85 -195.74 -175.84 -190.44 -175.84 C -180.03 -175.82 -169.62 -175.81 -159.2 -175.79 C -158.58 -173.41 -158.58 -173.41 -158.2 -170.79 C -160.2 -168.79 -160.2 -168.79 -162.42 -168.55 C -163.8 -168.55 -163.8 -168.55 -165.21 -168.56 C -166.25 -168.56 -167.29 -168.56 -168.36 -168.56 C -170.05 -168.57 -170.05 -168.57 -171.77 -168.59 C -173.5 -168.6 -173.5 -168.6 -175.26 -168.6 C -178.95 -168.61 -182.64 -168.64 -186.33 -168.66 C -188.82 -168.67 -191.32 -168.68 -193.82 -168.69 C -199.95 -168.71 -206.07 -168.74 -212.2 -168.79 C -212.39 -167.09 -212.39 -167.09 -212.58 -165.35 C -213.2 -160.79 -214.21 -156.28 -215.2 -151.79 C -197.71 -151.79 -180.22 -151.79 -162.2 -151.79 C -162.2 -150.14 -162.2 -148.49 -162.2 -146.79 C -164.12 -144.88 -166.94 -145.67 -169.48 -145.66 C -170.84 -145.67 -170.84 -145.67 -172.22 -145.67 C -173.17 -145.67 -174.11 -145.67 -175.09 -145.67 C -178.23 -145.67 -181.38 -145.68 -184.52 -145.69 C -186.69 -145.69 -188.87 -145.69 -191.04 -145.69 C -196.77 -145.7 -202.51 -145.71 -208.24 -145.72 C -214.08 -145.73 -219.93 -145.73 -225.77 -145.74 C -237.25 -145.75 -248.73 -145.76 -260.2 -145.79 C -260.83 -147.66 -260.83 -147.66 -261.2 -149.79 C -259.2 -151.79 -259.2 -151.79 -255.49 -152.01 C -253.89 -152.01 -252.29 -152 -250.7 -151.98 C -249.44 -151.98 -249.44 -151.98 -248.15 -151.97 C -245.46 -151.96 -242.77 -151.94 -240.08 -151.91 C -238.26 -151.9 -236.44 -151.89 -234.61 -151.88 C -230.14 -151.86 -225.67 -151.83 -221.2 -151.79 C -221.16 -152.43 -221.11 -153.07 -221.06 -153.73 C -220.6 -159 -219.84 -163.76 -218.2 -168.79 C -219.51 -168.78 -219.51 -168.78 -220.85 -168.77 C -224.08 -168.75 -227.31 -168.74 -230.54 -168.73 C -231.94 -168.73 -233.34 -168.72 -234.74 -168.71 C -236.75 -168.7 -238.75 -168.69 -240.76 -168.69 C -241.97 -168.68 -243.18 -168.68 -244.43 -168.67 C -247.2 -168.79 -247.2 -168.79 -248.2 -169.79 C -248.33 -172.29 -248.33 -172.29 -248.2 -174.79 C -246.39 -176.6 -243.91 -175.91 -241.5 -175.91 Z" fill="#1A1A1B" style="stroke-width: 1;" transform="matrix(1, 0, 0, 1, 0, 5.684341886080802e-14)"/>
  <path d="M -241.5 -175.91 C -240.68 -175.91 -239.86 -175.9 -239.01 -175.9 C -238.15 -175.9 -237.29 -175.9 -236.41 -175.9 C -233.56 -175.9 -230.71 -175.89 -227.86 -175.88 C -225.88 -175.88 -223.91 -175.88 -221.94 -175.88 C -216.74 -175.88 -211.54 -175.87 -206.34 -175.85 C -201.04 -175.85 -195.74 -175.84 -190.44 -175.84 C -180.03 -175.82 -169.62 -175.81 -159.2 -175.79 C -158.58 -173.41 -158.58 -173.41 -158.2 -170.79 C -160.2 -168.79 -160.2 -168.79 -162.42 -168.55 C -163.8 -168.55 -163.8 -168.55 -165.21 -168.56 C -166.25 -168.56 -167.29 -168.56 -168.36 -168.56 C -170.05 -168.57 -170.05 -168.57 -171.77 -168.59 C -173.5 -168.6 -173.5 -168.6 -175.26 -168.6 C -178.95 -168.61 -182.64 -168.64 -186.33 -168.66 C -188.82 -168.67 -191.32 -168.68 -193.82 -168.69 C -199.95 -168.71 -206.07 -168.74 -212.2 -168.79 C -211.87 -169.78 -211.54 -170.77 -211.2 -171.79 C -216.48 -171.79 -221.76 -171.79 -227.2 -171.79 C -227.2 -171.46 -227.2 -171.13 -227.2 -170.79 C -236.61 -170.29 -236.61 -170.29 -246.2 -169.79 C -246.86 -171.44 -247.52 -173.09 -248.2 -174.79 C -246.39 -176.6 -243.91 -175.91 -241.5 -175.91 Z" fill="#3D3D3D" style="stroke-width: 1;" transform="matrix(1, 0, 0, 1, 0, 5.684341886080802e-14)"/>
  <path d="M -249.91 -150.88 C -248.69 -150.88 -248.69 -150.88 -247.44 -150.88 C -244.82 -150.87 -242.2 -150.86 -239.58 -150.85 C -237.81 -150.84 -236.03 -150.84 -234.26 -150.84 C -229.91 -150.82 -225.56 -150.81 -221.2 -150.79 C -221.2 -149.8 -221.2 -148.81 -221.2 -147.79 C -219.55 -147.79 -217.9 -147.79 -216.2 -147.79 C -216.2 -148.78 -216.2 -149.77 -216.2 -150.79 C -198.71 -150.79 -181.22 -150.79 -163.2 -150.79 C -163.53 -149.47 -163.86 -148.15 -164.2 -146.79 C -196.21 -146.79 -228.22 -146.79 -261.2 -146.79 C -260.87 -147.78 -260.54 -148.77 -260.2 -149.79 C -256.98 -151.4 -253.46 -150.91 -249.91 -150.88 Z" fill="#434344" style="stroke-width: 1;" transform="matrix(1, 0, 0, 1, 0, 5.684341886080802e-14)"/>
  <path d="M -139.2 -175.79 C -136.23 -175.79 -133.26 -175.79 -130.2 -175.79 C -130.2 -169.19 -130.2 -162.59 -130.2 -155.79 C -133.17 -155.79 -136.14 -155.79 -139.2 -155.79 C -139.2 -162.39 -139.2 -168.99 -139.2 -175.79 Z" fill="#F2F2F1" style="stroke-width: 1;" transform="matrix(1, 0, 0, 1, 0, 5.684341886080802e-14)"/>
  <path d="M -248.2 -174.79 C -219.16 -174.46 -190.12 -174.13 -160.2 -173.79 C -160.2 -173.46 -160.2 -173.13 -160.2 -172.79 C -163.5 -172.46 -166.8 -172.13 -170.2 -171.79 C -170.2 -171.46 -170.2 -171.13 -170.2 -170.79 C -173.83 -170.79 -177.46 -170.79 -181.2 -170.79 C -181.2 -171.12 -181.2 -171.45 -181.2 -171.79 C -196.38 -171.79 -211.56 -171.79 -227.2 -171.79 C -227.2 -171.46 -227.2 -171.13 -227.2 -170.79 C -236.61 -170.29 -236.61 -170.29 -246.2 -169.79 C -246.86 -171.44 -247.52 -173.09 -248.2 -174.79 Z" fill="#454647" style="stroke-width: 1;" transform="matrix(1, 0, 0, 1, 0, 5.684341886080802e-14)"/>
  <path d="M -214.2 -165.79 C -213.87 -165.79 -213.54 -165.79 -213.2 -165.79 C -213.79 -159.65 -214.75 -153.78 -216.2 -147.79 C -217.85 -147.79 -219.5 -147.79 -221.2 -147.79 C -221.2 -148.78 -221.2 -149.77 -221.2 -150.79 C -226.44 -150.67 -231.67 -150.54 -236.9 -150.41 C -238.68 -150.37 -240.46 -150.33 -242.25 -150.29 C -244.8 -150.23 -247.36 -150.17 -249.91 -150.1 C -250.71 -150.09 -251.51 -150.07 -252.34 -150.05 C -256.4 -150.03 -256.4 -150.03 -260.2 -148.79 C -259.71 -150.27 -259.71 -150.27 -259.2 -151.79 C -246.66 -151.79 -234.12 -151.79 -221.2 -151.79 C -220.87 -155.09 -220.54 -158.39 -220.2 -161.79 C -217.2 -162.79 -217.2 -162.79 -215.2 -162.79 C -214.87 -163.78 -214.54 -164.77 -214.2 -165.79 Z" fill="#252525" style="stroke-width: 1;" transform="matrix(1, 0, 0, 1, 0, 5.684341886080802e-14)"/>
  <path d="M -248.2 -174.79 C -247.21 -174.29 -247.21 -174.29 -246.2 -173.79 C -244.83 -173.64 -243.45 -173.54 -242.07 -173.47 C -241.27 -173.43 -240.46 -173.39 -239.63 -173.34 C -238.79 -173.3 -237.95 -173.26 -237.08 -173.22 C -235.81 -173.16 -235.81 -173.16 -234.5 -173.09 C -232.41 -172.99 -230.3 -172.89 -228.2 -172.79 C -227.87 -172.13 -227.54 -171.47 -227.2 -170.79 C -236.61 -170.29 -236.61 -170.29 -246.2 -169.79 C -246.86 -171.44 -247.52 -173.09 -248.2 -174.79 Z" fill="#3C3D3D" style="stroke-width: 1;" transform="matrix(1, 0, 0, 1, 0, 5.684341886080802e-14)"/>
  <path d="M -217.2 -167.79 C -215.55 -167.46 -213.9 -167.13 -212.2 -166.79 C -213.41 -164.29 -214.66 -162.1 -216.2 -159.79 C -217.63 -162.14 -218.29 -163.27 -217.83 -166.04 C -217.62 -166.61 -217.42 -167.19 -217.2 -167.79 Z" fill="#444445" style="stroke-width: 1;" transform="matrix(1, 0, 0, 1, 0, 5.684341886080802e-14)"/>
</svg>