<?xml version="1.0" encoding="utf-8"?>
<svg xmlns="http://www.w3.org/2000/svg" viewBox="-511.5805 384.701 151.9014 213.029" width="151.901px" height="213.029px">
  <path d="M -486.61 385.063 C -485.7 385.055 -484.78 385.048 -483.84 385.041 C -482.34 385.037 -482.34 385.037 -480.81 385.033 C -479.23 385.023 -479.23 385.023 -477.61 385.013 C -474.11 384.993 -470.6 384.981 -467.1 384.971 C -465.9 384.967 -464.71 384.963 -463.47 384.959 C -457.13 384.938 -450.79 384.924 -444.45 384.915 C -437.92 384.904 -431.38 384.869 -424.85 384.829 C -419.81 384.803 -414.77 384.795 -409.74 384.791 C -407.33 384.786 -404.92 384.775 -402.51 384.756 C -399.13 384.732 -395.75 384.733 -392.37 384.74 C -391.39 384.727 -390.4 384.714 -389.38 384.701 C -380.04 384.77 -372.47 387.297 -365.77 393.94 C -359.75 402.651 -359.63 411.111 -359.7 421.387 C -359.7 423.016 -359.69 424.645 -359.69 426.273 C -359.67 430.676 -359.68 435.079 -359.7 439.482 C -359.71 444.104 -359.71 448.726 -359.7 453.348 C -359.7 461.11 -359.71 468.872 -359.74 476.635 C -359.76 485.587 -359.77 494.54 -359.75 503.493 C -359.74 512.129 -359.75 520.766 -359.76 529.402 C -359.77 533.066 -359.77 536.73 -359.76 540.394 C -359.76 544.717 -359.77 549.039 -359.79 553.361 C -359.8 554.94 -359.8 556.519 -359.79 558.098 C -359.73 580.66 -359.73 580.66 -367.08 588.21 C -367.74 588.911 -368.39 589.612 -369.07 590.335 C -376.77 597.106 -385.75 597.51 -395.61 597.5 C -396.61 597.507 -397.61 597.514 -398.64 597.521 C -401.92 597.539 -405.2 597.544 -408.48 597.546 C -410.78 597.552 -413.07 597.559 -415.37 597.566 C -420.17 597.578 -424.97 597.582 -429.77 597.58 C -435.9 597.58 -442.04 597.607 -448.17 597.642 C -452.91 597.664 -457.64 597.668 -462.38 597.667 C -464.64 597.669 -466.9 597.678 -469.16 597.694 C -472.33 597.713 -475.5 597.708 -478.67 597.696 C -479.59 597.707 -480.51 597.718 -481.46 597.73 C -489.68 597.651 -496.92 595.583 -503.08 589.96 C -509.19 583.263 -511.32 576.332 -511.34 567.411 C -511.35 566.728 -511.35 566.045 -511.35 565.341 C -511.36 563.053 -511.36 560.765 -511.37 558.477 C -511.37 556.835 -511.38 555.194 -511.38 553.553 C -511.39 549.094 -511.4 544.635 -511.4 540.176 C -511.41 537.389 -511.41 534.602 -511.42 531.814 C -511.43 523.088 -511.44 514.362 -511.44 505.636 C -511.45 495.572 -511.46 485.508 -511.49 475.445 C -511.52 467.66 -511.53 459.876 -511.53 452.091 C -511.53 447.445 -511.53 442.798 -511.55 438.152 C -511.57 433.778 -511.57 429.404 -511.56 425.03 C -511.56 423.429 -511.56 421.829 -511.57 420.228 C -511.64 409.441 -511.58 399.965 -503.88 391.714 C -498.8 387.158 -493.39 385.099 -486.61 385.063 Z" fill="#373838" style="stroke-width: 1;" transform="matrix(1, 0, 0, 1, 2.2737367544323206e-13, 0)"/>
  <path d="M -486.61 385.063 C -485.7 385.055 -484.78 385.048 -483.84 385.041 C -482.34 385.037 -482.34 385.037 -480.81 385.033 C -479.23 385.023 -479.23 385.023 -477.61 385.013 C -474.11 384.993 -470.6 384.981 -467.1 384.971 C -465.9 384.967 -464.71 384.963 -463.47 384.959 C -457.13 384.938 -450.79 384.924 -444.45 384.915 C -437.92 384.904 -431.38 384.869 -424.85 384.829 C -419.81 384.803 -414.77 384.795 -409.74 384.791 C -407.33 384.786 -404.92 384.775 -402.51 384.756 C -399.13 384.732 -395.75 384.733 -392.37 384.74 C -391.39 384.727 -390.4 384.714 -389.38 384.701 C -380.04 384.77 -372.47 387.297 -365.77 393.94 C -359.75 402.651 -359.63 411.111 -359.7 421.387 C -359.7 423.016 -359.69 424.645 -359.69 426.273 C -359.67 430.676 -359.68 435.079 -359.7 439.482 C -359.71 444.104 -359.71 448.726 -359.7 453.348 C -359.7 461.11 -359.71 468.872 -359.74 476.635 C -359.76 485.587 -359.77 494.54 -359.75 503.493 C -359.74 512.129 -359.75 520.766 -359.76 529.402 C -359.77 533.066 -359.77 536.73 -359.76 540.394 C -359.76 544.717 -359.77 549.039 -359.79 553.361 C -359.8 554.94 -359.8 556.519 -359.79 558.098 C -359.73 580.66 -359.73 580.66 -367.08 588.21 C -367.74 588.911 -368.39 589.612 -369.07 590.335 C -376.77 597.106 -385.75 597.51 -395.61 597.5 C -396.61 597.507 -397.61 597.514 -398.64 597.521 C -401.92 597.539 -405.2 597.544 -408.48 597.546 C -410.78 597.552 -413.07 597.559 -415.37 597.566 C -420.17 597.578 -424.97 597.582 -429.77 597.58 C -435.9 597.58 -442.04 597.607 -448.17 597.642 C -452.91 597.664 -457.64 597.668 -462.38 597.667 C -464.64 597.669 -466.9 597.678 -469.16 597.694 C -472.33 597.713 -475.5 597.708 -478.67 597.696 C -479.59 597.707 -480.51 597.718 -481.46 597.73 C -489.68 597.651 -496.92 595.583 -503.08 589.96 C -509.19 583.263 -511.32 576.332 -511.34 567.411 C -511.35 566.728 -511.35 566.045 -511.35 565.341 C -511.36 563.053 -511.36 560.765 -511.37 558.477 C -511.37 556.835 -511.38 555.194 -511.38 553.553 C -511.39 549.094 -511.4 544.635 -511.4 540.176 C -511.41 537.389 -511.41 534.602 -511.42 531.814 C -511.43 523.088 -511.44 514.362 -511.44 505.636 C -511.45 495.572 -511.46 485.508 -511.49 475.445 C -511.52 467.66 -511.53 459.876 -511.53 452.091 C -511.53 447.445 -511.53 442.798 -511.55 438.152 C -511.57 433.778 -511.57 429.404 -511.56 425.03 C -511.56 423.429 -511.56 421.829 -511.57 420.228 C -511.64 409.441 -511.58 399.965 -503.88 391.714 C -498.8 387.158 -493.39 385.099 -486.61 385.063 Z M -494.2 406.21 C -494.8 408.714 -494.8 408.714 -494.71 411.485 C -494.72 412.554 -494.73 413.622 -494.75 414.723 C -494.74 415.889 -494.73 417.056 -494.72 418.259 C -494.73 419.491 -494.74 420.724 -494.74 421.995 C -494.76 425.373 -494.75 428.75 -494.74 432.129 C -494.73 435.665 -494.74 439.201 -494.75 442.737 C -494.75 448.676 -494.75 454.614 -494.73 460.552 C -494.7 467.416 -494.71 474.28 -494.73 481.145 C -494.75 487.039 -494.75 492.934 -494.74 498.829 C -494.74 502.349 -494.74 505.869 -494.75 509.389 C -494.76 513.313 -494.74 517.237 -494.72 521.161 C -494.73 522.328 -494.74 523.495 -494.75 524.697 C -494.74 525.765 -494.72 526.834 -494.71 527.934 C -494.71 528.862 -494.71 529.79 -494.71 530.745 C -494.04 534.028 -492.86 535.209 -490.2 537.21 C -488 537.803 -488 537.803 -485.61 537.718 C -484.69 537.729 -483.78 537.74 -482.83 537.752 C -481.83 537.744 -480.84 537.736 -479.81 537.727 C -478.75 537.734 -477.69 537.741 -476.6 537.749 C -473.11 537.766 -469.61 537.754 -466.11 537.741 C -463.68 537.744 -461.25 537.748 -458.82 537.753 C -453.73 537.758 -448.64 537.75 -443.55 537.731 C -437.02 537.708 -430.49 537.722 -423.96 537.746 C -418.95 537.76 -413.93 537.755 -408.92 537.745 C -406.51 537.742 -404.1 537.746 -401.69 537.755 C -398.33 537.765 -394.96 537.75 -391.6 537.727 C -390.6 537.735 -389.6 537.744 -388.57 537.752 C -387.66 537.741 -386.74 537.729 -385.8 537.718 C -384.6 537.715 -384.6 537.715 -383.39 537.713 C -380.29 537 -379.11 535.714 -377.2 533.21 C -376.61 530.739 -376.61 530.739 -376.71 528.01 C -376.7 526.959 -376.69 525.907 -376.68 524.824 C -376.69 523.676 -376.71 522.527 -376.72 521.344 C -376.71 520.131 -376.71 518.918 -376.71 517.668 C -376.7 514.343 -376.71 511.019 -376.73 507.695 C -376.75 504.215 -376.75 500.734 -376.75 497.254 C -376.75 491.41 -376.76 485.566 -376.79 479.722 C -376.82 472.967 -376.83 466.212 -376.83 459.457 C -376.83 452.263 -376.85 445.069 -376.86 437.876 C -376.87 435.804 -376.87 433.732 -376.87 431.66 C -376.87 427.798 -376.89 423.937 -376.91 420.075 C -376.91 418.927 -376.91 417.779 -376.91 416.596 C -376.92 415.544 -376.93 414.493 -376.94 413.409 C -376.94 412.496 -376.94 411.583 -376.95 410.643 C -377.23 408.003 -377.76 406.429 -379.2 404.21 C -382.34 402.118 -383.06 401.957 -386.64 401.942 C -387.55 401.934 -388.45 401.925 -389.39 401.916 C -390.38 401.917 -391.37 401.918 -392.39 401.919 C -393.44 401.912 -394.49 401.906 -395.57 401.899 C -399.04 401.88 -402.51 401.876 -405.98 401.874 C -408.39 401.867 -410.8 401.861 -413.2 401.854 C -418.25 401.842 -423.3 401.838 -428.35 401.839 C -434.83 401.839 -441.31 401.812 -447.79 401.778 C -452.76 401.755 -457.73 401.751 -462.71 401.752 C -465.09 401.75 -467.48 401.741 -469.87 401.726 C -473.21 401.706 -476.55 401.712 -479.88 401.724 C -481.37 401.707 -481.37 401.707 -482.89 401.69 C -484.25 401.702 -484.25 401.702 -485.64 401.715 C -486.43 401.714 -487.22 401.713 -488.03 401.712 C -491.12 402.421 -492.3 403.709 -494.2 406.21 Z" fill="#FBFBFB" style="stroke-width: 1;" transform="matrix(1, 0, 0, 1, 2.2737367544323206e-13, 0)"/>
  <path d="M -428.98 550.081 C -423.97 552.94 -421.4 555.891 -419.2 561.21 C -418.35 567.09 -419.95 571.389 -423.2 576.21 C -428.08 580.851 -432.17 581.573 -438.7 581.487 C -443.74 580.929 -446.33 578.219 -449.52 574.522 C -451.96 569.727 -453.12 565.273 -451.54 559.995 C -449.56 555.671 -447.27 552.815 -443.2 550.21 C -438.43 548.617 -433.75 548.215 -428.98 550.081 Z" fill="#313233" style="stroke-width: 1;" transform="matrix(1, 0, 0, 1, 2.2737367544323206e-13, 0)"/>
  <path d="M -471.79 417.939 C -470.65 417.945 -470.65 417.945 -469.5 417.951 C -468.7 417.947 -467.91 417.944 -467.09 417.94 C -464.45 417.931 -461.81 417.937 -459.18 417.944 C -457.35 417.943 -455.52 417.941 -453.69 417.938 C -449.86 417.935 -446.02 417.94 -442.18 417.949 C -437.26 417.96 -432.34 417.954 -427.42 417.942 C -423.64 417.935 -419.87 417.937 -416.09 417.942 C -414.27 417.943 -412.46 417.942 -410.65 417.937 C -408.11 417.932 -405.58 417.94 -403.04 417.951 C -402.29 417.947 -401.54 417.943 -400.76 417.939 C -397.02 417.969 -395.39 418.083 -392.2 420.21 C -391.89 422.71 -391.89 422.71 -392.2 425.21 C -394.72 427.722 -396.26 427.457 -399.69 427.492 C -400.45 427.489 -401.21 427.487 -402 427.484 C -402.81 427.489 -403.61 427.495 -404.44 427.5 C -407.11 427.514 -409.78 427.513 -412.45 427.51 C -414.3 427.514 -416.15 427.519 -418 427.523 C -421.89 427.531 -425.77 427.531 -429.65 427.525 C -434.63 427.52 -439.61 427.537 -444.6 427.56 C -448.42 427.574 -452.24 427.575 -456.07 427.572 C -457.9 427.573 -459.74 427.578 -461.58 427.588 C -464.14 427.6 -466.71 427.594 -469.28 427.582 C -470.04 427.59 -470.8 427.597 -471.59 427.605 C -476.71 427.554 -476.71 427.554 -479.21 425.815 C -480.2 424.21 -480.2 424.21 -480.02 422.147 C -478.24 417.899 -476.06 417.974 -471.79 417.939 Z" fill="#F7F7F7" style="stroke-width: 1;" transform="matrix(1, 0, 0, 1, 2.2737367544323206e-13, 0)"/>
  <path d="M -471.71 456.939 C -470.94 456.943 -470.18 456.947 -469.39 456.951 C -468.58 456.947 -467.78 456.944 -466.94 456.94 C -464.27 456.931 -461.6 456.937 -458.92 456.944 C -457.07 456.943 -455.22 456.941 -453.36 456.938 C -449.48 456.935 -445.59 456.94 -441.7 456.949 C -436.71 456.96 -431.72 456.954 -426.73 456.942 C -422.9 456.935 -419.07 456.937 -415.25 456.942 C -413.41 456.943 -411.57 456.942 -409.73 456.937 C -407.16 456.932 -404.59 456.94 -402.02 456.951 C -401.25 456.947 -400.49 456.943 -399.7 456.939 C -394.43 456.981 -394.43 456.981 -392.2 459.21 C -392.02 461.772 -392.02 461.772 -392.2 464.21 C -393.98 465.984 -396.35 465.336 -398.71 465.345 C -399.5 465.343 -400.29 465.341 -401.1 465.339 C -401.93 465.341 -402.76 465.343 -403.61 465.344 C -406.36 465.349 -409.11 465.346 -411.86 465.343 C -413.76 465.343 -415.66 465.344 -417.57 465.345 C -421.56 465.347 -425.55 465.345 -429.54 465.34 C -434.67 465.334 -439.8 465.338 -444.93 465.344 C -448.86 465.347 -452.78 465.346 -456.71 465.344 C -458.6 465.343 -460.5 465.344 -462.39 465.346 C -465.03 465.349 -467.67 465.345 -470.3 465.339 C -471.49 465.342 -471.49 465.342 -472.7 465.345 C -478.09 465.324 -478.09 465.324 -479.2 464.21 C -479.39 461.772 -479.39 461.772 -479.2 459.21 C -476.69 456.693 -475.14 456.966 -471.71 456.939 Z" fill="#F2F2F2" style="stroke-width: 1;" transform="matrix(1, 0, 0, 1, 2.2737367544323206e-13, 0)"/>
  <path d="M -471.96 438.08 C -470.87 438.077 -469.77 438.074 -468.64 438.071 C -466.86 438.074 -466.86 438.074 -465.05 438.077 C -463.83 438.076 -462.62 438.075 -461.37 438.074 C -458.8 438.073 -456.23 438.075 -453.66 438.079 C -449.72 438.085 -445.78 438.079 -441.83 438.073 C -439.34 438.074 -436.85 438.075 -434.36 438.077 C -433.17 438.075 -431.99 438.073 -430.76 438.071 C -429.67 438.074 -428.58 438.077 -427.45 438.08 C -426.48 438.081 -425.51 438.082 -424.52 438.083 C -422.2 438.21 -422.2 438.21 -420.2 439.21 C -420.2 441.52 -420.2 443.83 -420.2 446.21 C -422.75 447.485 -424.58 447.351 -427.43 447.371 C -428.52 447.38 -429.62 447.39 -430.74 447.4 C -431.92 447.404 -433.11 447.408 -434.32 447.413 C -435.54 447.419 -436.75 447.424 -437.99 447.43 C -440.56 447.44 -443.12 447.446 -445.69 447.45 C -449.62 447.46 -453.55 447.491 -457.49 447.522 C -459.98 447.529 -462.46 447.534 -464.95 447.538 C -466.72 447.556 -466.72 447.556 -468.53 447.575 C -470.17 447.571 -470.17 447.571 -471.85 447.566 C -473.29 447.572 -473.29 447.572 -474.77 447.577 C -477.2 447.21 -477.2 447.21 -479.05 445.852 C -480.2 444.21 -480.2 444.21 -480.02 441.585 C -478.59 437.42 -475.91 438.084 -471.96 438.08 Z" fill="#FDFDFD" style="stroke-width: 1;" transform="matrix(1, 0, 0, 1, 2.2737367544323206e-13, 0)"/>
  <path d="M -432.16 477.08 C -431.3 477.077 -430.44 477.074 -429.56 477.071 C -428.63 477.073 -427.7 477.075 -426.74 477.077 C -425.31 477.075 -425.31 477.075 -423.86 477.074 C -421.84 477.073 -419.83 477.075 -417.81 477.079 C -414.72 477.085 -411.62 477.079 -408.53 477.073 C -406.58 477.074 -404.63 477.075 -402.67 477.077 C -401.27 477.074 -401.27 477.074 -399.85 477.071 C -398.99 477.074 -398.13 477.077 -397.25 477.08 C -396.49 477.081 -395.73 477.082 -394.95 477.083 C -393.2 477.21 -393.2 477.21 -392.2 478.21 C -392.02 480.647 -392.02 480.647 -392.2 483.21 C -394.57 485.58 -395.04 485.462 -398.25 485.469 C -399.51 485.478 -399.51 485.478 -400.78 485.488 C -401.69 485.484 -402.59 485.48 -403.52 485.475 C -404.9 485.478 -404.9 485.478 -406.32 485.481 C -408.27 485.483 -410.23 485.479 -412.19 485.47 C -415.19 485.46 -418.19 485.47 -421.2 485.483 C -423.1 485.482 -424.99 485.479 -426.89 485.475 C -427.79 485.479 -428.7 485.483 -429.63 485.488 C -430.88 485.478 -430.88 485.478 -432.15 485.469 C -432.89 485.467 -433.63 485.465 -434.38 485.464 C -436.2 485.21 -436.2 485.21 -438.2 483.21 C -437.59 478.168 -437.17 477.086 -432.16 477.08 Z" fill="#FDFDFD" style="stroke-width: 1;" transform="matrix(1, 0, 0, 1, 2.2737367544323206e-13, 0)"/>
  <path d="M -432.2 556.21 C -429.27 558.147 -429.27 558.147 -427.2 561.21 C -426.33 565.534 -426.46 568.941 -428.7 572.772 C -432.19 574.775 -435.34 574.992 -439.2 574.21 C -442.01 572.416 -443.71 571.191 -445.2 568.21 C -445.63 564.338 -445.52 562.685 -443.33 559.397 C -439.79 555.752 -437.23 555.699 -432.2 556.21 Z" fill="#FAFAFA" style="stroke-width: 1;" transform="matrix(1, 0, 0, 1, 2.2737367544323206e-13, 0)"/>
  <path d="M -464.77 477.024 C -462.71 477.022 -460.65 477.004 -458.59 476.985 C -457.3 476.983 -456 476.981 -454.67 476.979 C -453.48 476.975 -452.29 476.971 -451.06 476.967 C -448.2 477.21 -448.2 477.21 -446.2 479.21 C -446.45 481.772 -446.45 481.772 -447.2 484.21 C -450 485.609 -452.33 485.339 -455.45 485.343 C -456.7 485.344 -457.95 485.345 -459.24 485.346 C -460.55 485.343 -461.86 485.339 -463.2 485.335 C -465.17 485.341 -465.17 485.341 -467.17 485.346 C -469.04 485.345 -469.04 485.345 -470.95 485.343 C -472.1 485.341 -473.25 485.34 -474.44 485.339 C -477.2 485.21 -477.2 485.21 -479.2 484.21 C -479.2 482.23 -479.2 480.25 -479.2 478.21 C -474.98 476.095 -469.43 477.024 -464.77 477.024 Z" fill="#FCFCFC" style="stroke-width: 1;" transform="matrix(1, 0, 0, 1, 2.2737367544323206e-13, 0)"/>
  <path d="M -433.2 550.21 C -428.33 550.663 -425.68 551.731 -422.2 555.21 C -419.36 559.624 -418.7 562.985 -419.2 568.21 C -419.86 568.87 -420.52 569.53 -421.2 570.21 C -421.25 569.511 -421.3 568.812 -421.35 568.093 C -421.43 567.182 -421.5 566.272 -421.58 565.335 C -421.65 564.43 -421.72 563.525 -421.79 562.593 C -422 560.03 -422 560.03 -424.2 558.21 C -425.12 561.283 -425.29 564.011 -425.2 567.21 C -425.47 566.653 -425.74 566.096 -426.02 565.522 C -428.27 560.584 -428.27 560.584 -432.2 557.21 C -436.58 556.715 -438.52 556.717 -442.14 559.335 C -444.38 562.047 -444.38 562.047 -444.83 565.21 C -443.97 569.345 -442.61 570.73 -439.2 573.21 C -436.47 573.897 -434.05 574.065 -431.2 574.21 C -431.86 574.87 -432.52 575.53 -433.2 576.21 C -438.49 576.01 -441.42 574.888 -445.2 571.21 C -446.81 567.991 -446.66 564.7 -446.2 561.21 C -444.77 558.335 -444.77 558.335 -442.2 556.21 C -439.24 555.235 -436.29 554.651 -433.2 554.21 C -433.2 553.22 -433.2 552.23 -433.2 551.21 C -433.2 550.88 -433.2 550.55 -433.2 550.21 Z" fill="#272828" style="stroke-width: 1;" transform="matrix(1, 0, 0, 1, 2.2737367544323206e-13, 0)"/>
  <path d="M -424.2 557.21 C -422.01 558.974 -421.26 560.003 -420.55 562.768 C -419.77 570.614 -419.77 570.614 -422.14 573.897 C -422.82 574.33 -423.5 574.763 -424.2 575.21 C -424.2 574.22 -424.2 573.23 -424.2 572.21 C -425.52 573.2 -426.84 574.19 -428.2 575.21 C -428.86 574.88 -429.52 574.55 -430.2 574.21 C -429.71 573.88 -429.21 573.55 -428.7 573.21 C -426.7 570.545 -427.04 568.377 -427.16 565.143 C -427.21 562.977 -426.98 561.236 -426.2 559.21 C -425.54 558.55 -424.88 557.89 -424.2 557.21 Z" fill="#404041" style="stroke-width: 1;" transform="matrix(1, 0, 0, 1, 2.2737367544323206e-13, 0)"/>
  <path d="M -448.2 557.21 C -446.88 557.54 -445.56 557.87 -444.2 558.21 C -445.95 563.085 -445.95 563.085 -448.2 564.21 C -448.2 566.85 -448.2 569.49 -448.2 572.21 C -450.2 570.21 -450.2 570.21 -450.47 567.932 C -450.46 567.055 -450.46 566.177 -450.45 565.272 C -450.46 564.397 -450.46 563.522 -450.47 562.62 C -450.2 560.21 -450.2 560.21 -448.2 557.21 Z" fill="#404141" style="stroke-width: 1;" transform="matrix(1, 0, 0, 1, 2.2737367544323206e-13, 0)"/>
  <path d="M -431.2 550.21 C -430.87 550.87 -430.54 551.53 -430.2 552.21 C -430.86 552.21 -431.52 552.21 -432.2 552.21 C -432.53 553.2 -432.86 554.19 -433.2 555.21 C -435.51 554.88 -437.82 554.55 -440.2 554.21 C -437.56 550.302 -436.07 548.587 -431.2 550.21 Z" fill="#3B3C3D" style="stroke-width: 1;" transform="matrix(1, 0, 0, 1, 2.2737367544323206e-13, 0)"/>
</svg>