<?xml version="1.0" encoding="utf-8"?>
<svg xmlns="http://www.w3.org/2000/svg" viewBox="-763.2354 412.6856 191.2554 164.0214" width="191.255px" height="164.021px">
  <path d="M -713.72 412.708 C -712.37 412.704 -711.02 412.699 -709.67 412.692 C -706.02 412.678 -702.37 412.689 -698.72 412.705 C -694.9 412.719 -691.07 412.713 -687.24 412.709 C -680.82 412.707 -674.39 412.72 -667.97 412.743 C -660.55 412.77 -653.13 412.772 -645.71 412.76 C -638.56 412.749 -631.41 412.755 -624.26 412.769 C -621.23 412.775 -618.19 412.775 -615.15 412.77 C -611.57 412.765 -608 412.776 -604.42 412.797 C -602.49 412.805 -600.55 412.799 -598.62 412.792 C -591.74 412.851 -586.66 413.084 -581.34 417.893 C -580.86 418.472 -580.38 419.051 -579.89 419.647 C -579.4 420.223 -578.91 420.8 -578.4 421.393 C -577.06 423.426 -576.5 424.792 -576.2 427.21 C -577.26 428.822 -577.26 428.822 -578.92 430.382 C -579.82 431.248 -579.82 431.248 -580.74 432.133 C -581.39 432.736 -582.04 433.339 -582.7 433.96 C -584.01 435.217 -585.32 436.476 -586.63 437.737 C -587.25 438.339 -587.88 438.941 -588.53 439.561 C -590.46 441.456 -592.22 443.444 -593.95 445.522 C -597.92 450.223 -602.57 454.183 -607.2 458.21 C -608.97 455.899 -610.59 453.607 -612.14 451.147 C -614.8 447.365 -616.84 445.663 -621.2 444.21 C -623.08 444.107 -624.96 444.063 -626.84 444.051 C -628.01 444.042 -629.19 444.032 -630.4 444.022 C -631.69 444.016 -632.98 444.01 -634.3 444.004 C -635.67 443.995 -637.04 443.985 -638.41 443.974 C -642.13 443.947 -645.85 443.926 -649.57 443.906 C -653.46 443.885 -657.35 443.857 -661.24 443.83 C -668.6 443.78 -675.96 443.735 -683.33 443.692 C -691.71 443.643 -700.09 443.588 -708.47 443.533 C -725.72 443.419 -742.96 443.312 -760.2 443.21 C -760.2 442.55 -760.2 441.89 -760.2 441.21 C -758.75 439.789 -758.75 439.789 -756.73 438.128 C -753.67 435.522 -750.78 432.84 -747.98 429.948 C -747.28 429.222 -746.57 428.495 -745.85 427.747 C -744.41 426.258 -742.98 424.763 -741.56 423.262 C -740.5 422.179 -740.5 422.179 -739.42 421.073 C -738.8 420.426 -738.18 419.78 -737.55 419.113 C -729.9 412.902 -723.27 412.634 -713.72 412.708 Z M -763.2 450.21 C -744.65 450.094 -726.09 450.005 -707.53 449.951 C -698.91 449.925 -690.29 449.89 -681.68 449.833 C -674.17 449.783 -666.66 449.75 -659.15 449.739 C -655.17 449.733 -651.19 449.717 -647.21 449.681 C -643.47 449.647 -639.73 449.637 -635.98 449.644 C -633.96 449.642 -631.93 449.615 -629.9 449.588 C -619.99 449.644 -619.99 449.644 -616.91 452.558 C -614.48 456.328 -614.09 459.009 -614.14 463.397 C -614.15 464.298 -614.16 465.199 -614.17 466.128 C -614.19 467.158 -614.19 467.158 -614.2 468.21 C -624.23 468.389 -634.24 468.554 -644.27 468.71 C -645.03 468.722 -645.79 468.733 -646.58 468.746 C -673.75 469.164 -700.91 469.299 -728.08 469.272 C -728.96 469.271 -729.85 469.271 -730.76 469.27 C -741.57 469.258 -752.39 469.238 -763.2 469.21 C -763.2 462.94 -763.2 456.67 -763.2 450.21 Z M -763.2 476.21 C -747.69 476.21 -732.18 476.21 -716.2 476.21 C -715.54 480.17 -714.88 484.13 -714.2 488.21 C -711.87 491.385 -711.87 491.385 -709.2 493.21 C -708.87 493.54 -708.54 493.87 -708.2 494.21 C -705.52 494.336 -702.87 494.398 -700.19 494.413 C -699.38 494.419 -698.57 494.424 -697.74 494.43 C -696.02 494.44 -694.31 494.446 -692.59 494.45 C -689.98 494.46 -687.36 494.491 -684.75 494.522 C -683.08 494.529 -681.42 494.534 -679.75 494.538 C -678.97 494.55 -678.19 494.563 -677.39 494.575 C -672.82 494.557 -669.77 494.158 -666.2 491.21 C -663.45 486.305 -663.45 486.305 -663.2 476.21 C -647.03 476.21 -630.86 476.21 -614.2 476.21 C -614.2 509.21 -614.2 542.21 -614.2 576.21 C -647.77 576.371 -647.77 576.371 -661.85 576.405 C -671.56 576.429 -681.28 576.457 -691 576.511 C -698.07 576.551 -705.15 576.577 -712.22 576.586 C -715.97 576.591 -719.72 576.603 -723.46 576.633 C -727.65 576.665 -731.83 576.666 -736.02 576.664 C -737.87 576.685 -737.87 576.685 -739.77 576.707 C -746.48 576.675 -750.78 576.298 -756.2 572.21 C -760.25 567.829 -762.43 564.209 -762.52 558.215 C -762.55 556.717 -762.55 556.717 -762.58 555.189 C -762.59 554.108 -762.61 553.027 -762.62 551.913 C -762.64 550.783 -762.66 549.653 -762.68 548.488 C -762.74 544.812 -762.78 541.136 -762.83 537.46 C -762.87 534.952 -762.9 532.444 -762.94 529.936 C -763.21 512.025 -763.29 494.123 -763.2 476.21 Z M -575.2 463.21 C -574.87 463.21 -574.54 463.21 -574.2 463.21 C -574.08 479.467 -574.15 495.722 -574.47 511.977 C -574.5 513.749 -574.53 515.522 -574.55 517.295 C -574.58 519.807 -574.64 522.319 -574.69 524.831 C -574.7 525.946 -574.7 525.946 -574.71 527.084 C -574.9 533.671 -576.65 539.004 -581.22 543.96 C -581.83 544.627 -582.44 545.295 -583.07 545.983 C -586.88 549.956 -590.71 553.897 -594.59 557.785 C -596.04 559.23 -597.47 560.683 -598.9 562.135 C -599.82 563.047 -600.72 563.958 -601.66 564.897 C -602.49 565.726 -603.31 566.555 -604.16 567.409 C -606.2 569.21 -606.2 569.21 -608.2 569.21 C -613.28 500.585 -613.28 500.585 -602.14 486.405 C -596.8 480.316 -590.3 475.425 -583.34 471.319 C -579.8 468.937 -577.82 466.546 -575.2 463.21 Z" fill="#FDFDFD" style="stroke-width: 1;"/>
  <path d="M -576.2 434.21 C -575.54 434.21 -574.88 434.21 -574.2 434.21 C -572.73 452.6 -572.73 452.6 -575.96 458.327 C -578.27 460.522 -578.27 460.522 -580.55 462.198 C -583.6 464.51 -585.82 467.123 -588.29 470.023 C -591.55 473.752 -595.07 477.219 -598.58 480.71 C -599.3 481.437 -600.02 482.164 -600.77 482.913 C -601.46 483.599 -602.14 484.284 -602.85 484.991 C -603.47 485.61 -604.09 486.23 -604.73 486.868 C -606.2 488.21 -606.2 488.21 -607.2 488.21 C -609.05 480.677 -609.94 473.627 -607.2 466.21 C -601.44 457.375 -592.68 450.195 -584.77 443.331 C -582.24 441.13 -580.03 438.988 -577.93 436.358 C -577.08 435.295 -577.08 435.295 -576.2 434.21 Z" fill="#FAFAFA" style="stroke-width: 1;"/>
  <path d="M -708.2 479.21 C -695.33 479.21 -682.46 479.21 -669.2 479.21 C -669.2 485.21 -669.2 485.21 -671.2 488.21 C -673.87 488.502 -676.31 488.606 -678.98 488.573 C -679.75 488.573 -680.52 488.574 -681.31 488.575 C -682.94 488.572 -684.57 488.562 -686.2 488.546 C -688.69 488.522 -691.19 488.525 -693.68 488.532 C -695.26 488.526 -696.84 488.519 -698.42 488.51 C -699.17 488.511 -699.92 488.512 -700.69 488.513 C -705.97 488.441 -705.97 488.441 -708.2 486.21 C -708.2 483.9 -708.2 481.59 -708.2 479.21 Z" fill="#FCFCFC" style="stroke-width: 1;"/>
  <path d="M -668.2 478.21 C -667.87 478.21 -667.54 478.21 -667.2 478.21 C -667.06 479.303 -666.91 480.396 -666.77 481.522 C -666.32 485.141 -666.32 485.141 -665.2 488.21 C -665.64 490.397 -665.64 490.397 -666.2 492.21 C -668.68 491.22 -668.68 491.22 -671.2 490.21 C -670.87 488.56 -670.54 486.91 -670.2 485.21 C -669.54 485.21 -668.88 485.21 -668.2 485.21 C -668.2 482.9 -668.2 480.59 -668.2 478.21 Z" fill="#424344" style="stroke-width: 1;"/>
  <path d="M -579.2 459.21 C -578.87 460.2 -578.54 461.19 -578.2 462.21 C -581.17 464.685 -581.17 464.685 -584.2 467.21 C -583.66 463.414 -582 461.738 -579.2 459.21 Z M -592.2 474.21 C -591.54 474.54 -590.88 474.87 -590.2 475.21 C -590.77 478.802 -592.05 480.342 -594.7 482.772 C -597.17 485.044 -598.12 485.953 -599.2 489.21 C -599.86 489.21 -600.52 489.21 -601.2 489.21 C -601.2 488.55 -601.2 487.89 -601.2 487.21 C -601.86 486.88 -602.52 486.55 -603.2 486.21 C -602.49 485.511 -601.78 484.812 -601.05 484.093 C -600.13 483.182 -599.21 482.272 -598.27 481.335 C -596.89 479.977 -596.89 479.977 -595.49 478.593 C -593.19 476.433 -593.19 476.433 -592.2 474.21 Z" fill="#3E3D3F" style="stroke-width: 1;"/>
  <path d="M -581.2 471.21 C -582.64 472.96 -582.64 472.96 -584.2 474.21 C -584.272 474.186 -584.343 474.162 -584.415 474.138 C -584.716 474.456 -585.017 474.774 -585.319 475.091 C -585.279 475.131 -585.24 475.17 -585.2 475.21 C -587.439 477.449 -589.678 479.688 -591.935 481.945 C -594.003 484.052 -596.089 486.142 -598.2 488.21 C -598.2 487.569 -598.2 487.064 -598.185 486.651 C -598.941 487.64 -599.643 488.671 -600.341 489.788 C -600.294 489.928 -600.247 490.069 -600.2 490.21 C -600.496 490.457 -600.763 490.679 -601.006 490.882 C -601.071 490.99 -601.135 491.1 -601.2 491.21 C -601.613 491.497 -602.024 491.785 -602.436 492.074 C -603.297 492.791 -603.903 493.296 -605.115 494.306 C -608.481 498.442 -608.003 503.56 -608.04 508.867 C -608.03 510.427 -608.02 511.986 -608.01 513.546 C -608.02 515.151 -608.03 516.757 -608.05 518.363 C -608.09 522.575 -608.09 526.786 -608.08 530.998 C -608.08 535.302 -608.11 539.605 -608.14 543.909 C -608.2 552.343 -608.21 560.776 -608.2 569.21 C -608.53 569.21 -608.86 569.21 -609.2 569.21 C -609.53 546.11 -609.86 523.01 -610.2 499.21 C -610.86 499.21 -611.52 499.21 -612.2 499.21 C -612.53 524.62 -612.86 550.03 -613.2 576.21 C -613.53 576.21 -613.86 576.21 -614.2 576.21 C -614.2 542.88 -614.2 509.55 -614.2 475.21 C -613.54 475.87 -612.88 476.53 -612.2 477.21 C -611.21 477.21 -610.22 477.21 -609.2 477.21 C -608.54 477.54 -607.88 477.87 -607.2 478.21 C -606.87 481.18 -606.54 484.15 -606.2 487.21 C -601.91 482.92 -597.62 478.63 -593.2 474.21 C -592.773 474.352 -592.346 474.495 -591.917 474.638 C -592.01 474.167 -592.103 473.692 -592.2 473.21 C -590.73 471.291 -589.05 469.753 -587.26 468.12 C -584.48 465.535 -582.06 462.686 -579.59 459.811 C -578.82 458.921 -578.04 458.041 -577.2 457.21 C -576.54 457.54 -575.88 457.87 -575.2 458.21 C -575.53 459.2 -575.86 460.19 -576.2 461.21 C -575.54 461.87 -574.88 462.53 -574.2 463.21 C -576.549 465.746 -578.899 468.276 -581.261 470.794 C -581.242 470.923 -581.222 471.062 -581.2 471.21 Z M -573.2 469.21 C -572.87 469.21 -572.54 469.21 -572.2 469.21 C -572.16 476.503 -572.12 483.797 -572.1 491.091 C -572.09 494.478 -572.08 497.866 -572.05 501.253 C -572.03 505.155 -572.02 509.057 -572.01 512.96 C -572 514.165 -571.99 515.371 -571.98 516.613 C -571.98 522.845 -572.35 528.249 -574.2 534.21 C -574.53 534.21 -574.86 534.21 -575.2 534.21 C -575.2 520.68 -575.2 507.15 -575.2 493.21 C -574.87 493.21 -574.54 493.21 -574.2 493.21 C -573.87 485.29 -573.54 477.37 -573.2 469.21 Z M -736.2 470.21 C -697.59 470.21 -658.98 470.21 -619.2 470.21 C -619.2 470.54 -619.2 470.87 -619.2 471.21 C -621.51 471.54 -623.82 471.87 -626.2 472.21 C -620.76 472.705 -620.76 472.705 -615.2 473.21 C -614.87 474.2 -614.54 475.19 -614.2 476.21 C -630.37 476.21 -646.54 476.21 -663.2 476.21 C -663.2 479.84 -663.2 483.47 -663.2 487.21 C -664.91 491.528 -667.07 493.215 -671.2 495.21 C -674.07 495.521 -676.71 495.678 -679.57 495.678 C -680.37 495.686 -681.17 495.694 -682 495.702 C -683.68 495.712 -685.37 495.715 -687.06 495.711 C -689.63 495.71 -692.2 495.751 -694.77 495.796 C -696.41 495.801 -698.05 495.804 -699.7 495.803 C -700.46 495.82 -701.22 495.836 -702.01 495.853 C -707.73 495.78 -710.2 494.29 -714.2 490.21 C -717.12 485.435 -716.2 482.378 -716.2 476.21 C -731.71 476.21 -747.22 476.21 -763.2 476.21 C -763.2 475.88 -763.2 475.55 -763.2 475.21 C -747.36 475.21 -731.52 475.21 -715.2 475.21 C -715.7 473.23 -715.7 473.23 -716.2 471.21 C -722.8 471.21 -729.4 471.21 -736.2 471.21 C -736.2 470.88 -736.2 470.55 -736.2 470.21 Z M -760.2 443.21 C -742.18 443.14 -724.16 443.087 -706.14 443.054 C -697.78 443.039 -689.41 443.018 -681.04 442.983 C -673.75 442.953 -666.46 442.934 -659.16 442.927 C -655.3 442.924 -651.44 442.914 -647.58 442.893 C -643.94 442.872 -640.31 442.866 -636.67 442.87 C -634.7 442.869 -632.74 442.853 -630.77 442.836 C -629.59 442.841 -628.42 442.845 -627.2 442.849 C -625.67 442.845 -625.67 442.845 -624.11 442.841 C -621.696 443.147 -619.709 443.773 -617.902 444.734 C -615.603 445.739 -613.952 447.12 -612.476 448.937 C -612.447 448.965 -612.419 448.993 -612.39 449.022 C -612.356 449.072 -612.322 449.121 -612.289 449.17 C -611.574 450.076 -610.896 451.087 -610.2 452.21 C -609.33 455.647 -609.33 455.647 -609.2 458.21 C -610.75 455.891 -612 453.703 -613.2 451.21 C -614.19 452.53 -615.18 453.85 -616.2 455.21 C -620.198 452.129 -620.788 451.675 -621.687 450.749 C -626.018 448.956 -630.955 449.518 -635.83 449.55 C -637.22 449.542 -638.61 449.531 -640 449.519 C -643.76 449.49 -647.52 449.493 -651.28 449.501 C -655.22 449.504 -659.15 449.479 -663.09 449.457 C -670.54 449.419 -677.99 449.407 -685.43 449.404 C -693.92 449.4 -702.4 449.367 -710.88 449.331 C -728.32 449.259 -745.76 449.223 -763.2 449.21 C -763.2 448.88 -763.2 448.55 -763.2 448.21 C -712.22 447.715 -712.22 447.715 -660.2 447.21 C -659.87 446.55 -659.54 445.89 -659.2 445.21 C -692.53 444.88 -725.86 444.55 -760.2 444.21 C -760.2 443.88 -760.2 443.55 -760.2 443.21 Z M -577.2 427.21 C -577.2 430.989 -578.2 431.671 -580.7 434.397 C -581.35 435.113 -582 435.828 -582.67 436.565 C -583.18 437.108 -583.68 437.651 -584.2 438.21 C -583.21 439.2 -582.22 440.19 -581.2 441.21 C -581.98 441.982 -582.76 442.754 -583.56 443.549 C -586.44 446.414 -589.32 449.283 -592.2 452.153 C -593.45 453.395 -594.7 454.635 -595.95 455.875 C -597.74 457.657 -599.53 459.443 -601.32 461.229 C -602.16 462.059 -602.16 462.059 -603.01 462.906 C -605.36 465.248 -607.36 467.443 -609.2 470.21 C -608.72 465.663 -607.19 463.719 -603.95 460.565 C -603.1 459.724 -602.24 458.883 -601.36 458.016 C -600.734 457.415 -600.113 456.814 -599.48 456.204 C -599.69 456.21 -599.926 456.21 -600.2 456.21 C -599.61 452.917 -598.54 451.079 -596.33 448.585 C -595.82 447.994 -595.3 447.404 -594.77 446.796 C -593.518 445.532 -593.265 445.275 -591.693 444.21 C -592.191 444.21 -592.692 444.21 -593.2 444.21 C -588.03 438.375 -582.8 432.645 -577.2 427.21 Z" fill="#3C3C3D" style="stroke-width: 1;"/>
</svg>