<?xml version="1.0" encoding="utf-8"?>
<svg xmlns="http://www.w3.org/2000/svg" viewBox="1206.5 -148.0766 280.51 197.2677" width="280.51px" height="197.268px">
  <path d="M 1269.6 -148.05 C 1270.6 -148.06 1271.59 -148.06 1272.62 -148.07 C 1274.24 -148.06 1274.24 -148.06 1275.91 -148.05 C 1277.07 -148.06 1278.2 -148.06 1279.39 -148.07 C 1283.2 -148.08 1287.01 -148.07 1290.82 -148.06 C 1293.46 -148.07 1296.11 -148.07 1298.76 -148.07 C 1304.31 -148.08 1309.86 -148.07 1315.4 -148.06 C 1321.81 -148.04 1328.21 -148.04 1334.62 -148.06 C 1340.12 -148.08 1345.63 -148.08 1351.13 -148.07 C 1354.41 -148.06 1357.69 -148.06 1360.98 -148.07 C 1364.65 -148.08 1368.33 -148.07 1371.99 -148.05 C 1373.07 -148.06 1374.14 -148.07 1375.27 -148.07 C 1381.46 -148.02 1386.15 -147.36 1391.78 -144.66 C 1395.96 -140.26 1396.9 -137.67 1396.78 -131.66 C 1397.56 -131.68 1398.33 -131.69 1399.13 -131.7 C 1402.63 -131.74 1406.14 -131.76 1409.65 -131.79 C 1410.88 -131.81 1412.1 -131.82 1413.36 -131.84 C 1414.53 -131.85 1415.69 -131.85 1416.89 -131.86 C 1417.97 -131.87 1419.05 -131.88 1420.16 -131.89 C 1422.78 -131.66 1422.78 -131.66 1424.78 -129.66 C 1425.05 -127.52 1425.05 -127.52 1425.09 -124.82 C 1425.1 -123.81 1425.12 -122.8 1425.13 -121.77 C 1425.13 -120.67 1425.14 -119.58 1425.14 -118.45 C 1425.15 -117.33 1425.16 -116.22 1425.17 -115.06 C 1425.18 -112.69 1425.19 -110.32 1425.2 -107.94 C 1425.21 -104.31 1425.27 -100.68 1425.32 -97.048 C 1425.33 -94.746 1425.33 -92.444 1425.34 -90.142 C 1425.36 -89.053 1425.38 -87.965 1425.39 -86.843 C 1425.35 -79.402 1425.35 -79.402 1422.72 -76.034 C 1419.17 -74.387 1415.84 -73.717 1411.98 -73.286 C 1411.23 -73.188 1410.48 -73.09 1409.72 -72.989 C 1407.35 -72.678 1404.96 -72.389 1402.59 -72.103 C 1386.29 -70.961 1386.29 -70.961 1372.01 -64.322 C 1368.39 -59.158 1366.38 -53.005 1364.15 -47.165 C 1363.88 -46.481 1363.62 -45.797 1363.35 -45.092 C 1356.58 -27.732 1350.51 -10.115 1344.4 7.485 C 1337.6 27.102 1337.6 27.102 1334.53 35.077 C 1334.11 36.166 1333.68 37.255 1333.26 38.377 C 1331.06 42.769 1328.51 46.409 1324.09 48.772 C 1314.63 50.378 1305.45 47.048 1296.53 44.21 C 1294.66 43.661 1294.66 43.661 1292.77 43.1 C 1285.81 40.899 1280.46 38.924 1276.78 32.335 C 1273.68 23.076 1276.88 15.372 1280.65 6.835 C 1281.17 5.606 1281.7 4.377 1282.22 3.148 C 1283.39 0.414 1284.58 -2.314 1285.77 -5.039 C 1288.01 -10.187 1290.2 -15.352 1292.4 -20.517 C 1295.52 -27.823 1298.63 -35.127 1301.78 -42.423 C 1302.13 -43.245 1302.47 -44.067 1302.85 -44.914 C 1305.12 -50.181 1307.45 -55.405 1309.93 -60.579 C 1311.64 -64.817 1311.31 -68.139 1309.84 -72.353 C 1304.37 -78.494 1294.63 -79.965 1286.94 -81.865 C 1285.84 -82.145 1284.71 -82.426 1283.58 -82.715 C 1281.22 -83.303 1278.88 -83.886 1276.54 -84.466 C 1272.98 -85.348 1269.42 -86.249 1265.88 -87.152 C 1263.59 -87.724 1261.3 -88.295 1259.01 -88.865 C 1257.96 -89.131 1256.91 -89.398 1255.83 -89.673 C 1249.67 -91.18 1243.81 -92.032 1237.46 -92.252 C 1234.25 -92.747 1232.34 -93.682 1229.78 -95.665 C 1229.28 -98.562 1229.12 -100.87 1229.18 -103.76 C 1229.18 -104.95 1229.18 -104.95 1229.18 -106.16 C 1229.19 -107.83 1229.2 -109.49 1229.23 -111.16 C 1229.28 -113.72 1229.27 -116.28 1229.27 -118.84 C 1229.28 -120.46 1229.29 -122.08 1229.31 -123.7 C 1229.31 -124.47 1229.31 -125.24 1229.31 -126.03 C 1229.36 -128.18 1229.36 -128.18 1229.78 -131.66 C 1233.08 -133.87 1234.05 -133.91 1237.88 -133.86 C 1238.86 -133.85 1239.85 -133.85 1240.86 -133.84 C 1241.88 -133.82 1242.91 -133.81 1243.96 -133.79 C 1245 -133.78 1246.03 -133.77 1247.1 -133.76 C 1249.66 -133.74 1252.22 -133.7 1254.78 -133.66 C 1254.78 -130.03 1254.78 -126.41 1254.78 -122.67 C 1250.15 -122.67 1245.54 -122.67 1240.78 -122.67 C 1241.11 -116.39 1241.43 -110.13 1241.78 -103.67 C 1298.54 -103.67 1355.3 -103.67 1413.78 -103.67 C 1413.78 -109.28 1413.78 -114.89 1413.78 -120.67 C 1408.16 -120.67 1402.56 -120.67 1396.78 -120.67 C 1396.78 -118.69 1396.78 -116.7 1396.78 -114.67 C 1395.61 -112.81 1395.61 -112.81 1393.78 -111.67 C 1391.41 -111.28 1391.41 -111.28 1388.59 -111.28 C 1387.51 -111.27 1386.43 -111.26 1385.33 -111.25 C 1383.56 -111.25 1383.56 -111.25 1381.74 -111.26 C 1379.88 -111.25 1379.88 -111.25 1377.98 -111.24 C 1374.58 -111.22 1371.16 -111.22 1367.76 -111.23 C 1364.91 -111.23 1362.07 -111.23 1359.21 -111.22 C 1352.51 -111.21 1345.8 -111.21 1339.09 -111.22 C 1332.15 -111.23 1325.22 -111.22 1318.31 -111.19 C 1312.36 -111.17 1306.41 -111.16 1300.46 -111.17 C 1296.91 -111.17 1293.37 -111.17 1289.82 -111.15 C 1285.86 -111.13 1281.89 -111.15 1277.93 -111.16 C 1276.76 -111.15 1275.58 -111.14 1274.37 -111.13 C 1273.29 -111.14 1272.2 -111.15 1271.1 -111.16 C 1269.69 -111.16 1269.69 -111.16 1268.26 -111.17 C 1265.01 -111.82 1263.81 -113.08 1261.78 -115.67 C 1261.27 -118.73 1261.27 -118.73 1261.28 -122.29 C 1261.28 -123.58 1261.28 -124.86 1261.28 -126.18 C 1261.29 -126.84 1261.3 -127.51 1261.31 -128.19 C 1261.34 -130.22 1261.33 -132.25 1261.32 -134.29 C 1261.38 -144.13 1261.38 -144.13 1263 -146.32 C 1265.33 -148.08 1266.7 -148.04 1269.6 -148.05 Z" fill="#F4F4F2" style="stroke-width: 1;"/>
  <path d="M 1291.78 -92.665 C 1332.04 -92.665 1372.3 -92.665 1413.78 -92.665 C 1413.78 -90.355 1413.78 -88.045 1413.78 -85.665 C 1404.73 -83.761 1395.71 -82.103 1386.57 -80.844 C 1376.42 -79.355 1368.47 -76.768 1361.78 -68.665 C 1360.55 -66.287 1359.45 -63.995 1358.43 -61.532 C 1358.13 -60.835 1357.85 -60.137 1357.54 -59.418 C 1354.02 -51.045 1350.92 -42.517 1347.84 -33.978 C 1347.19 -32.219 1346.56 -30.46 1345.91 -28.701 C 1342.35 -18.877 1338.84 -9.028 1335.38 0.839 C 1334.65 2.903 1333.93 4.968 1333.2 7.033 C 1331.82 11.009 1330.42 14.99 1329.06 18.974 C 1328.41 20.798 1327.78 22.621 1327.13 24.444 C 1326.86 25.272 1326.58 26.101 1326.29 26.954 C 1324.72 31.357 1323.23 35.042 1319.78 38.335 C 1317.8 38.721 1317.8 38.721 1315.7 38.354 C 1314.91 38.217 1314.13 38.08 1313.33 37.939 C 1308.77 36.858 1304.34 35.517 1299.9 34.022 C 1298.49 33.578 1298.49 33.578 1297.07 33.126 C 1295.71 32.678 1295.71 32.678 1294.35 32.221 C 1293.54 31.955 1292.73 31.69 1291.9 31.416 C 1289.24 30.064 1288.18 28.962 1286.78 26.335 C 1285.88 20.654 1288.23 16.174 1290.51 11.108 C 1290.89 10.215 1291.29 9.322 1291.69 8.402 C 1292.95 5.5 1294.24 2.605 1295.53 -0.29 C 1296.39 -2.284 1297.28 -4.279 1298.14 -6.274 C 1299.88 -10.239 1301.62 -14.201 1303.37 -18.161 C 1306.52 -25.353 1309.63 -32.568 1312.71 -39.79 C 1313.17 -40.87 1313.64 -41.95 1314.13 -43.062 C 1315.35 -45.926 1316.57 -48.794 1317.78 -51.665 C 1318.16 -52.587 1318.56 -53.508 1318.95 -54.457 C 1319.33 -55.337 1319.68 -56.216 1320.06 -57.122 C 1320.38 -57.89 1320.7 -58.658 1321.03 -59.45 C 1322.89 -64.999 1322.3 -69.962 1320.21 -75.353 C 1316.69 -82.283 1312.46 -85.243 1305.13 -87.758 C 1303.15 -88.393 1301.18 -88.995 1299.2 -89.587 C 1295.78 -90.665 1295.78 -90.665 1291.78 -92.665 Z" fill="#414141" style="stroke-width: 1;"/>
  <path d="M 1258.78 -142.66 C 1259.11 -142.66 1259.43 -142.66 1259.78 -142.66 C 1260.27 -135.74 1260.27 -135.74 1260.78 -128.66 C 1261.11 -128.66 1261.43 -128.66 1261.78 -128.66 C 1261.81 -127.76 1261.85 -126.86 1261.89 -125.93 C 1261.99 -124.16 1261.99 -124.16 1262.09 -122.35 C 1262.15 -121.18 1262.2 -120.01 1262.26 -118.8 C 1262.82 -115.39 1263.08 -114.65 1265.78 -112.67 C 1268.24 -112.22 1268.24 -112.22 1271.08 -112.31 C 1272.16 -112.3 1273.27 -112.3 1274.39 -112.29 C 1276.2 -112.31 1276.2 -112.31 1278.05 -112.33 C 1279.32 -112.32 1280.59 -112.32 1281.89 -112.32 C 1285.38 -112.32 1288.86 -112.34 1292.33 -112.36 C 1295.96 -112.38 1299.61 -112.38 1303.23 -112.39 C 1310.13 -112.39 1317.01 -112.42 1323.89 -112.45 C 1331.72 -112.48 1339.57 -112.5 1347.4 -112.51 C 1363.53 -112.55 1379.65 -112.6 1395.78 -112.67 C 1396.11 -115.31 1396.43 -117.94 1396.78 -120.67 C 1402.38 -120.67 1407.99 -120.67 1413.78 -120.67 C 1413.78 -115.06 1413.78 -109.44 1413.78 -103.67 C 1356.68 -103.33 1299.6 -103 1240.78 -102.67 C 1240.78 -109.27 1240.78 -115.86 1240.78 -122.67 C 1245.72 -122.67 1250.67 -122.67 1255.78 -122.67 C 1255.78 -126.63 1255.78 -130.59 1255.78 -134.66 C 1256.43 -134.66 1257.1 -134.66 1257.78 -134.66 C 1258.11 -137.31 1258.43 -139.94 1258.78 -142.66 Z" fill="#383838" style="stroke-width: 1;"/>
  <path d="M 1272.78 -136.66 C 1287.21 -136.71 1301.65 -136.75 1316.09 -136.77 C 1322.8 -136.78 1329.49 -136.79 1336.2 -136.82 C 1342.66 -136.84 1349.13 -136.85 1355.6 -136.85 C 1358.07 -136.86 1360.54 -136.87 1363.01 -136.88 C 1366.45 -136.89 1369.9 -136.89 1373.36 -136.89 C 1374.38 -136.9 1375.42 -136.91 1376.48 -136.91 C 1377.88 -136.91 1377.88 -136.91 1379.33 -136.91 C 1380.13 -136.91 1380.95 -136.91 1381.8 -136.91 C 1383.78 -136.66 1383.78 -136.66 1385.78 -134.66 C 1385.78 -130.71 1385.78 -126.75 1385.78 -122.67 C 1348.48 -122.67 1311.19 -122.67 1272.78 -122.67 C 1272.78 -127.28 1272.78 -131.91 1272.78 -136.66 Z" fill="#3E3E3E" style="stroke-width: 1;"/>
  <path d="M 1431.78 -124.67 C 1448.79 -124.67 1448.79 -124.67 1455.4 -124.35 C 1456.55 -124.32 1456.55 -124.32 1457.7 -124.28 C 1462.02 -124.08 1464.77 -123.84 1467.78 -120.67 C 1468.28 -117.62 1468.28 -117.62 1468.28 -113.92 C 1468.28 -113.26 1468.28 -112.61 1468.28 -111.93 C 1468.28 -110.55 1468.27 -109.17 1468.24 -107.79 C 1468.21 -105.67 1468.22 -103.56 1468.23 -101.45 C 1468.22 -100.1 1468.21 -98.759 1468.2 -97.415 C 1468.19 -96.193 1468.18 -94.971 1468.17 -93.712 C 1467.78 -90.665 1467.78 -90.665 1466.37 -88.785 C 1458.41 -83.196 1440.86 -84.436 1431.78 -83.665 C 1431.78 -97.195 1431.78 -110.72 1431.78 -124.67 Z" fill="#F6F5F3" style="stroke-width: 1;"/>
  <path d="M 1212.03 -123.86 C 1215.61 -123.8 1219.19 -123.73 1222.78 -123.67 C 1222.78 -116.73 1222.78 -109.81 1222.78 -102.67 C 1209.03 -103.42 1209.03 -103.42 1206.78 -105.67 C 1206.58 -108.38 1206.5 -110.96 1206.53 -113.67 C 1206.52 -114.4 1206.51 -115.14 1206.5 -115.9 C 1206.53 -123.53 1206.53 -123.53 1212.03 -123.86 Z" fill="#F6F6F4" style="stroke-width: 1;"/>
  <path d="M 1291.78 -92.665 C 1332.04 -92.665 1372.3 -92.665 1413.78 -92.665 C 1413.78 -90.355 1413.78 -88.045 1413.78 -85.665 C 1408.39 -84.474 1403.33 -83.373 1397.78 -83.665 C 1401.05 -85.578 1403.77 -86.022 1407.53 -86.29 C 1408.51 -86.365 1409.49 -86.44 1410.51 -86.517 C 1411.26 -86.566 1412.01 -86.615 1412.78 -86.665 C 1412.78 -87.985 1412.78 -89.305 1412.78 -90.665 C 1378.13 -90.335 1343.47 -90.005 1307.78 -89.665 C 1308.11 -89.005 1308.43 -88.345 1308.78 -87.665 C 1303.09 -88.904 1297.42 -90.228 1291.78 -91.665 C 1291.78 -91.995 1291.78 -92.325 1291.78 -92.665 Z" fill="#2E2E2F" style="stroke-width: 1;"/>
  <path d="M 1380.78 -65.665 C 1381.43 -65.665 1382.1 -65.665 1382.78 -65.665 C 1384.99 -57.759 1385.46 -49.843 1384.78 -41.665 C 1382.4 -39.291 1381.15 -39.148 1377.9 -38.54 C 1377.04 -38.373 1376.17 -38.205 1375.29 -38.032 C 1372.78 -37.665 1372.78 -37.665 1368.78 -37.665 C 1369.4 -42.927 1371.07 -47.38 1373.09 -52.228 C 1373.38 -52.97 1373.67 -53.712 1373.98 -54.476 C 1375.73 -58.731 1377.54 -62.296 1380.78 -65.665 Z" fill="#F4F4F2" style="stroke-width: 1;"/>
  <path d="M 1477.28 -112.76 C 1478.8 -112.75 1478.8 -112.75 1480.34 -112.73 C 1481.35 -112.72 1482.37 -112.71 1483.4 -112.7 C 1484.58 -112.68 1484.58 -112.68 1485.78 -112.67 C 1487.02 -110.19 1486.94 -108.43 1486.96 -105.67 C 1486.97 -104.78 1486.99 -103.89 1487.01 -102.98 C 1486.78 -100.67 1486.78 -100.67 1484.78 -98.665 C 1482.17 -98.47 1482.17 -98.47 1479.15 -98.54 C 1477.64 -98.567 1477.64 -98.567 1476.12 -98.595 C 1475.35 -98.618 1474.57 -98.641 1473.78 -98.665 C 1473.74 -100.81 1473.72 -102.96 1473.71 -105.1 C 1473.7 -106.3 1473.68 -107.49 1473.67 -108.72 C 1473.81 -112.63 1473.81 -112.63 1477.28 -112.76 Z" fill="#E7E7E6" style="stroke-width: 1;"/>
  <path d="M 1431.78 -124.67 C 1439.68 -124.75 1447.56 -124.67 1455.46 -124.29 C 1456.23 -124.26 1457.02 -124.23 1457.82 -124.2 C 1461.6 -124 1463.57 -123.8 1466.78 -121.67 C 1466.44 -121 1466.12 -120.34 1465.78 -119.67 C 1464.91 -119.99 1464.05 -120.32 1463.15 -120.65 C 1459.79 -121.66 1457.21 -121.9 1453.71 -121.86 C 1452.06 -121.85 1452.06 -121.85 1450.37 -121.84 C 1449.21 -121.82 1448.08 -121.81 1446.9 -121.79 C 1445.73 -121.78 1444.57 -121.77 1443.37 -121.76 C 1440.51 -121.74 1437.64 -121.7 1434.78 -121.67 C 1434.78 -114.41 1434.78 -107.14 1434.78 -99.67 C 1433.79 -99.33 1432.8 -99 1431.78 -98.665 C 1431.78 -107.25 1431.78 -115.83 1431.78 -124.67 Z" fill="#E7E7E6" style="stroke-width: 1;"/>
  <path d="M 1232.78 -133.66 C 1240.04 -133.66 1247.3 -133.66 1254.78 -133.66 C 1254.78 -130.03 1254.78 -126.41 1254.78 -122.67 C 1249.83 -122.67 1244.88 -122.67 1239.78 -122.67 C 1239.78 -123.33 1239.78 -123.98 1239.78 -124.67 C 1244.07 -124.67 1248.36 -124.67 1252.78 -124.67 C 1252.78 -126.97 1252.78 -129.28 1252.78 -131.66 C 1246.17 -131.66 1239.58 -131.66 1232.78 -131.66 C 1232.78 -132.32 1232.78 -132.99 1232.78 -133.66 Z" fill="#FBFCFB" style="stroke-width: 1;"/>
  <path d="M 1476.78 -109.67 C 1479.09 -109.67 1481.39 -109.67 1483.78 -109.67 C 1484.11 -106.03 1484.43 -102.41 1484.78 -98.665 C 1481.81 -98.665 1478.84 -98.665 1475.78 -98.665 C 1476.11 -99.33 1476.43 -99.98 1476.78 -100.67 C 1476.85 -102.21 1476.87 -103.75 1476.84 -105.29 C 1476.83 -106.11 1476.82 -106.92 1476.81 -107.77 C 1476.8 -108.39 1476.79 -109.02 1476.78 -109.67 Z" fill="#F6F5F4" style="stroke-width: 1;"/>
  <path d="M 1395.78 -140.66 C 1398.13 -138.31 1398.27 -136.89 1398.78 -133.66 C 1399.45 -133.68 1400.13 -133.7 1400.83 -133.71 C 1403.89 -133.78 1406.95 -133.81 1410.03 -133.85 C 1411.09 -133.88 1412.15 -133.9 1413.24 -133.93 C 1414.28 -133.94 1415.3 -133.95 1416.36 -133.96 C 1417.3 -133.97 1418.23 -133.99 1419.21 -134.01 C 1422.19 -133.61 1423.56 -132.65 1425.78 -130.66 C 1425.44 -130 1425.12 -129.34 1424.78 -128.66 C 1424.12 -129.32 1423.45 -129.99 1422.78 -130.66 C 1420.06 -131.04 1420.06 -131.04 1416.89 -131.08 C 1415.72 -131.12 1414.56 -131.16 1413.36 -131.2 C 1412.13 -131.23 1410.91 -131.26 1409.65 -131.29 C 1408.41 -131.33 1407.18 -131.37 1405.92 -131.41 C 1402.88 -131.5 1399.83 -131.59 1396.78 -131.66 C 1396.44 -134.63 1396.12 -137.6 1395.78 -140.66 Z" fill="#2B2C2C" style="stroke-width: 1;"/>
  <path d="M 1303.78 -90.665 C 1318.95 -90.665 1334.13 -90.665 1349.78 -90.665 C 1349.78 -90.335 1349.78 -90.005 1349.78 -89.665 C 1348.64 -89.645 1347.52 -89.626 1346.36 -89.605 C 1342.15 -89.529 1337.95 -89.44 1333.76 -89.348 C 1331.94 -89.31 1330.13 -89.275 1328.32 -89.243 C 1325.7 -89.198 1323.09 -89.14 1320.47 -89.079 C 1319.66 -89.068 1318.86 -89.056 1318.03 -89.044 C 1314.16 -88.944 1311.05 -88.854 1307.78 -86.665 C 1307.78 -87.325 1307.78 -87.985 1307.78 -88.665 C 1306.45 -89.325 1305.13 -89.985 1303.78 -90.665 Z" fill="#4A4B4B" style="stroke-width: 1;"/>
  <path d="M 1258.78 -142.66 C 1259.11 -142.66 1259.43 -142.66 1259.78 -142.66 C 1259.88 -139.91 1259.96 -137.17 1260.03 -134.41 C 1260.06 -133.64 1260.09 -132.86 1260.13 -132.06 C 1260.15 -130.93 1260.15 -130.93 1260.17 -129.78 C 1260.2 -128.74 1260.2 -128.74 1260.23 -127.68 C 1259.78 -125.67 1259.78 -125.67 1255.78 -121.67 C 1255.78 -125.95 1255.78 -130.25 1255.78 -134.66 C 1256.43 -134.66 1257.1 -134.66 1257.78 -134.66 C 1258.11 -137.31 1258.43 -139.94 1258.78 -142.66 Z" fill="#4A494A" style="stroke-width: 1;"/>
  <path d="M 1474.78 -112.67 C 1478.4 -112.67 1482.04 -112.67 1485.78 -112.67 C 1487.04 -110.14 1486.88 -108.35 1486.84 -105.54 C 1486.83 -104.63 1486.82 -103.72 1486.81 -102.78 C 1486.8 -102.08 1486.79 -101.39 1486.78 -100.67 C 1485.79 -100.33 1484.8 -100 1483.78 -99.67 C 1483.44 -103.3 1483.12 -106.92 1482.78 -110.67 C 1480.13 -111 1477.49 -111.33 1474.78 -111.67 C 1474.78 -112 1474.78 -112.33 1474.78 -112.67 Z" fill="#D7D7D6" style="stroke-width: 1;"/>
  <path d="M 1432.78 -93.665 C 1433.11 -93.665 1433.43 -93.665 1433.78 -93.665 C 1433.78 -91.025 1433.78 -88.385 1433.78 -85.665 C 1434.77 -85.665 1435.76 -85.665 1436.78 -85.665 C 1437.11 -86.325 1437.43 -86.985 1437.78 -87.665 C 1439.76 -87.005 1441.73 -86.345 1443.78 -85.665 C 1443.78 -85.335 1443.78 -85.005 1443.78 -84.665 C 1437.84 -84.17 1437.84 -84.17 1431.78 -83.665 C 1431.67 -90.599 1431.67 -90.599 1431.78 -92.665 C 1432.11 -92.995 1432.43 -93.325 1432.78 -93.665 Z" fill="#EFEFEE" style="stroke-width: 1;"/>
  <path d="M 1375.78 -67.665 C 1378.09 -67.665 1380.39 -67.665 1382.78 -67.665 C 1384.63 -64.53 1384.97 -62.291 1384.78 -58.665 C 1382.78 -61.665 1382.78 -61.665 1382.78 -65.665 C 1379.81 -63.19 1379.81 -63.19 1376.78 -60.665 C 1376.98 -61.449 1377.18 -62.233 1377.4 -63.04 C 1377.53 -63.907 1377.64 -64.773 1377.78 -65.665 C 1377.12 -66.325 1376.45 -66.985 1375.78 -67.665 Z" fill="#282829" style="stroke-width: 1;"/>
  <path d="M 1278.78 -85.665 C 1282.4 -85.335 1286.04 -85.005 1289.78 -84.665 C 1289.78 -84.005 1289.78 -83.345 1289.78 -82.665 C 1290.77 -82.665 1291.76 -82.665 1292.78 -82.665 C 1292.78 -82.005 1292.78 -81.345 1292.78 -80.665 C 1288.15 -81.655 1283.54 -82.645 1278.78 -83.665 C 1278.78 -84.325 1278.78 -84.985 1278.78 -85.665 Z" fill="#EAEAE9" style="stroke-width: 1;"/>
  <path d="M 1341.78 -23.665 C 1343.11 -19.683 1341.78 -17.217 1340.34 -13.478 C 1339.97 -12.496 1339.97 -12.496 1339.61 -11.495 C 1339.01 -9.882 1338.38 -8.273 1337.78 -6.665 C 1336.69 -9.915 1336.87 -10.939 1337.65 -14.165 C 1337.84 -14.939 1338.02 -15.712 1338.2 -16.509 C 1338.66 -18.246 1339.2 -19.961 1339.78 -21.665 C 1340.43 -21.665 1341.1 -21.665 1341.78 -21.665 C 1341.78 -22.325 1341.78 -22.985 1341.78 -23.665 Z" fill="#252425" style="stroke-width: 1;"/>
  <path d="M 1295.78 32.335 C 1297.93 32.577 1297.93 32.577 1300.4 33.21 C 1301.21 33.413 1302.04 33.617 1302.88 33.827 C 1303.82 34.078 1303.82 34.078 1304.78 34.335 C 1304.78 34.995 1304.78 35.655 1304.78 36.335 C 1303.13 36.335 1301.47 36.335 1299.78 36.335 C 1299.78 35.675 1299.78 35.015 1299.78 34.335 C 1297.8 34.335 1295.82 34.335 1293.78 34.335 C 1294.43 33.675 1295.1 33.015 1295.78 32.335 Z" fill="#EEEEED" style="stroke-width: 1;"/>
  <path d="M 1412.78 -73.665 C 1411.45 -73.335 1410.13 -73.005 1408.78 -72.665 C 1408.78 -72.005 1408.78 -71.345 1408.78 -70.665 C 1405.81 -70.995 1402.84 -71.325 1399.78 -71.665 C 1399.78 -71.995 1399.78 -72.325 1399.78 -72.665 C 1404.18 -73.768 1408.26 -73.742 1412.78 -73.665 Z" fill="#1F2020" style="stroke-width: 1;"/>
  <path d="M 1348.78 -11.665 C 1349.43 -11.335 1350.1 -11.005 1350.78 -10.665 C 1349.79 -7.695 1348.8 -4.725 1347.78 -1.665 C 1347.12 -2.325 1346.45 -2.985 1345.78 -3.665 C 1347.65 -9.415 1347.65 -9.415 1348.78 -11.665 Z" fill="#ECEDEB" style="stroke-width: 1;"/>
</svg>