<?xml version="1.0" encoding="utf-8"?>
<svg xmlns="http://www.w3.org/2000/svg" viewBox="-786.863 109.0316 200.093 144.8865" width="200.093px" height="144.887px">
  <path d="M -651.24 122.194 C -641.01 130.077 -631.91 140.65 -627.2 152.811 C -627.2 155.21 -627.2 155.21 -629.02 157.499 C -629.93 158.27 -630.83 159.04 -631.77 159.835 C -632.26 160.263 -632.76 160.691 -633.27 161.132 C -634.9 162.515 -636.54 163.866 -638.2 165.21 C -639.01 165.864 -639.01 165.864 -639.83 166.531 C -643.27 169.313 -646.77 172.028 -650.28 174.724 C -652.28 176.27 -654.26 177.838 -656.24 179.409 C -677.48 196.147 -701.36 209.25 -726.52 219.147 C -727.62 219.591 -728.73 220.034 -729.88 220.491 C -730.91 220.882 -731.94 221.272 -733 221.675 C -734.37 222.195 -734.37 222.195 -735.76 222.725 C -738.2 223.21 -738.2 223.21 -740.42 222.41 C -749.75 216.121 -756.25 200.95 -758.77 190.307 C -761.46 171.049 -757.67 152.243 -746.52 136.229 C -722.67 105.191 -682.89 101.01 -651.24 122.194 Z" fill="#FDFDFD" style="stroke-width: 1;" transform="matrix(1, 0, 0, 1, 2.2737367544323206e-13, 5.684341886080802e-14)"/>
  <path d="M -592.39 116.022 C -588.94 119.473 -587.43 122.562 -586.77 127.397 C -588.61 143.415 -599.58 156.364 -610.48 167.454 C -612.33 169.338 -614.15 171.248 -615.97 173.159 C -639.12 197.222 -670.37 217.715 -700.64 231.647 C -701.25 231.93 -701.87 232.214 -702.5 232.505 C -755.67 256.981 -755.67 256.981 -776.64 249.647 C -780.43 247.876 -783.25 246.08 -785.42 242.444 C -787.99 235.121 -786.95 227.92 -783.7 221.022 C -780.46 215.238 -776.55 210.197 -772.2 205.21 C -771.47 204.345 -770.74 203.48 -769.98 202.589 C -765.97 197.926 -765.97 197.926 -764.2 196.21 C -763.54 196.21 -762.88 196.21 -762.2 196.21 C -760.26 199.895 -759.23 203.023 -759.2 207.21 C -761.25 211.871 -764.79 215.75 -767.98 219.665 C -771.27 223.822 -773.04 227.787 -773.64 233.085 C -773.5 234.116 -773.35 235.147 -773.2 236.21 C -768.15 239.576 -762.51 238.565 -756.7 237.522 C -725.45 230.514 -695.32 215.558 -669.2 197.21 C -668.45 196.68 -667.69 196.149 -666.91 195.603 C -655.43 187.513 -644.27 179.182 -633.91 169.682 C -631.96 167.896 -629.99 166.138 -628 164.393 C -616.73 154.415 -607.85 143.287 -602.2 129.21 C -602.2 127.89 -602.2 126.57 -602.2 125.21 C -609.72 123.05 -617.04 123.729 -624.41 126 C -633.19 128.698 -633.19 128.698 -636.67 127.022 C -638.48 125.186 -639.82 123.372 -641.2 121.21 C -642.18 120.187 -643.17 119.179 -644.2 118.21 C -627.99 112.333 -608.08 105.91 -592.39 116.022 Z" fill="#FBFBFB" style="stroke-width: 1;" transform="matrix(1, 0, 0, 1, 2.2737367544323206e-13, 5.684341886080802e-14)"/>
  <path d="M -645.2 117.21 C -644.12 118.124 -643.04 119.041 -641.95 119.96 C -641.35 120.47 -640.75 120.981 -640.13 121.507 C -638.2 123.21 -638.2 123.21 -636.44 125.522 C -635.7 126.079 -634.96 126.636 -634.2 127.21 C -631.46 126.827 -629.3 126.311 -626.7 125.46 C -619.3 123.315 -611.48 121.408 -603.94 123.983 C -602.2 125.21 -602.2 125.21 -601.51 127.067 C -600.99 130.701 -602.95 133.626 -604.58 136.772 C -604.94 137.483 -605.3 138.194 -605.68 138.927 C -612.07 151.028 -621.8 160.561 -632.11 169.385 C -633.53 170.624 -634.93 171.894 -636.3 173.19 C -643.71 180.161 -651.9 185.941 -660.2 191.796 C -661.79 192.921 -663.38 194.063 -664.95 195.21 C -692.01 214.751 -735.19 242.792 -770.2 239.21 C -772.77 238.147 -772.77 238.147 -774.2 236.21 C -775.65 229.243 -771.89 223.926 -768.2 218.21 C -766.71 216.285 -765.21 214.368 -763.7 212.46 C -761.63 209.833 -761.63 209.833 -760.2 207.21 C -760.56 203.314 -760.56 203.314 -762.2 200.21 C -761.83 197.772 -761.83 197.772 -761.2 196.21 C -758.42 196.8 -758.42 196.8 -755.2 198.21 C -753.33 201.151 -753.33 201.151 -751.77 204.772 C -749 210.835 -745.98 216.445 -741.2 221.21 C -737.86 222.325 -737.34 222.159 -734.2 220.979 C -733.39 220.677 -732.58 220.375 -731.74 220.064 C -730.86 219.72 -729.98 219.376 -729.08 219.022 C -728.16 218.666 -727.24 218.309 -726.29 217.942 C -692.79 204.664 -664.36 186.013 -637.14 162.718 C -634.18 160.191 -631.2 157.696 -628.2 155.21 C -629.65 145.885 -636.24 138.665 -642.15 131.655 C -643.91 129.554 -645.58 127.421 -647.2 125.21 C -645.88 124.55 -644.56 123.89 -643.2 123.21 C -644.19 121.725 -644.19 121.725 -645.2 120.21 C -645.2 119.22 -645.2 118.23 -645.2 117.21 Z" fill="#383839" style="stroke-width: 1;" transform="matrix(1, 0, 0, 1, 2.2737367544323206e-13, 5.684341886080802e-14)"/>
  <path d="M -608.09 212.026 C -603.34 215.006 -599.23 219.974 -597.2 225.21 C -596.35 232.849 -596.34 239.097 -601.2 245.21 C -606.29 250.506 -611.04 253.14 -618.45 253.647 C -624.68 253.489 -630.21 250.823 -634.88 246.753 C -639.67 241.41 -640.69 235.678 -640.51 228.733 C -639.79 222.853 -637.1 218.758 -632.77 214.835 C -625.49 209.185 -616.64 208.4 -608.09 212.026 Z" fill="#FCFCFC" style="stroke-width: 1;" transform="matrix(1, 0, 0, 1, 2.2737367544323206e-13, 5.684341886080802e-14)"/>
  <path d="M -623.2 189.21 C -624.04 198.932 -624.04 198.932 -627.2 203.21 C -628.92 204.227 -630.68 205.179 -632.45 206.085 C -640.85 210.368 -645.13 215.885 -648.48 224.62 C -649.34 227.331 -649.34 227.331 -649.37 230.753 C -650.2 234.21 -650.2 234.21 -653.23 236.538 C -654.52 237.207 -655.82 237.847 -657.14 238.46 C -657.82 238.797 -658.5 239.134 -659.2 239.481 C -670.5 244.944 -681.32 246.388 -693.77 246.397 C -694.67 246.409 -695.58 246.422 -696.51 246.434 C -701.81 246.446 -706.19 245.95 -711.2 244.21 C -708.49 242.051 -705.92 240.508 -702.74 239.151 C -701.87 238.772 -700.99 238.392 -700.1 238.001 C -699.16 237.595 -698.23 237.19 -697.27 236.772 C -679.84 229.01 -663.62 219.438 -648.2 208.21 C -647.16 207.451 -647.16 207.451 -646.1 206.677 C -639 201.486 -631.96 196.289 -625.49 190.319 C -624.2 189.21 -624.2 189.21 -623.2 189.21 Z" fill="#FBFBFA" style="stroke-width: 1;" transform="matrix(1, 0, 0, 1, 2.2737367544323206e-13, 5.684341886080802e-14)"/>
  <path d="M -690.2 227.21 C -690.86 228.86 -691.52 230.51 -692.2 232.21 C -690.88 232.54 -689.56 232.87 -688.2 233.21 C -690.43 234.337 -692.66 235.462 -694.89 236.585 C -695.52 236.902 -696.14 237.219 -696.79 237.546 C -704.1 241.22 -704.1 241.22 -707.2 242.21 C -708.19 241.88 -709.18 241.55 -710.2 241.21 C -709.54 240.55 -708.88 239.89 -708.2 239.21 C -707.87 238.22 -707.54 237.23 -707.2 236.21 C -707.86 235.88 -708.52 235.55 -709.2 235.21 C -706.79 233.866 -704.37 232.535 -701.95 231.21 C -700.93 230.637 -700.93 230.637 -699.89 230.053 C -699.22 229.693 -698.56 229.332 -697.87 228.96 C -697.27 228.625 -696.66 228.289 -696.03 227.944 C -694.2 227.21 -694.2 227.21 -690.2 227.21 Z" fill="#333333" style="stroke-width: 1;" transform="matrix(1, 0, 0, 1, 2.2737367544323206e-13, 5.684341886080802e-14)"/>
  <path d="M -762.2 196.21 C -759.46 196.253 -759.46 196.253 -756.2 197.21 C -754.49 199.695 -753.26 201.822 -752.02 204.522 C -751.36 205.874 -750.7 207.224 -750.03 208.573 C -749.73 209.205 -749.42 209.838 -749.1 210.49 C -748.01 212.576 -746.71 214.399 -745.2 216.21 C -745.53 216.87 -745.86 217.53 -746.2 218.21 C -756.2 205.676 -756.2 205.676 -756.2 200.21 C -757.19 200.87 -758.18 201.53 -759.2 202.21 C -758.54 203.86 -757.88 205.51 -757.2 207.21 C -758.19 207.87 -759.18 208.53 -760.2 209.21 C -760.94 204.885 -761.59 200.554 -762.2 196.21 Z" fill="#292929" style="stroke-width: 1;" transform="matrix(1, 0, 0, 1, 2.2737367544323206e-13, 5.684341886080802e-14)"/>
</svg>