<?xml version="1.0" encoding="utf-8"?>
<svg xmlns="http://www.w3.org/2000/svg" viewBox="665.2659 158.335 152.8967 246.508" width="152.897px" height="246.508px">
  <path d="M 693.182 161.188 C 694.058 161.18 694.934 161.173 695.836 161.166 C 696.79 161.163 697.743 161.16 698.725 161.158 C 699.735 161.151 700.746 161.145 701.786 161.138 C 705.13 161.118 708.474 161.106 711.818 161.096 C 712.962 161.092 714.105 161.088 715.283 161.084 C 721.337 161.063 727.39 161.049 733.443 161.04 C 739.686 161.028 745.929 160.994 752.172 160.954 C 756.981 160.928 761.789 160.92 766.598 160.916 C 768.899 160.911 771.199 160.9 773.5 160.881 C 776.726 160.857 779.952 160.858 783.178 160.865 C 784.121 160.852 785.065 160.839 786.036 160.826 C 795.298 160.898 802.26 164.124 808.986 170.421 C 818.86 180.984 818.071 193.772 818.05 207.364 C 818.054 209.191 818.059 211.019 818.065 212.846 C 818.079 217.79 818.079 222.734 818.077 227.679 C 818.076 231.814 818.081 235.949 818.085 240.084 C 818.096 249.842 818.097 259.601 818.091 269.359 C 818.085 279.411 818.097 289.462 818.118 299.514 C 818.136 308.159 818.142 316.805 818.139 325.451 C 818.137 330.607 818.14 335.764 818.153 340.921 C 818.166 345.771 818.164 350.621 818.151 355.471 C 818.149 357.246 818.151 359.02 818.16 360.795 C 818.22 374.648 817.317 385.331 807.588 395.96 C 799.843 403.488 790.583 404.481 780.278 404.512 C 779.328 404.518 778.378 404.525 777.399 404.532 C 774.26 404.551 771.121 404.563 767.982 404.573 C 766.907 404.577 765.832 404.581 764.724 404.585 C 759.033 404.606 753.341 404.62 747.65 404.63 C 741.787 404.641 735.924 404.675 730.061 404.715 C 725.539 404.741 721.017 404.75 716.495 404.753 C 714.335 404.758 712.174 404.77 710.014 404.788 C 706.982 404.813 703.951 404.812 700.919 404.805 C 699.596 404.824 699.596 404.824 698.246 404.843 C 688.922 404.766 681.276 401.583 674.529 395.19 C 667.747 388.015 665.465 381.226 665.508 371.24 C 665.503 370.454 665.499 369.667 665.494 368.857 C 665.481 366.237 665.483 363.618 665.485 360.998 C 665.479 359.113 665.472 357.229 665.464 355.344 C 665.447 350.234 665.442 345.125 665.441 340.015 C 665.439 336.819 665.435 333.623 665.43 330.428 C 665.411 319.269 665.403 308.111 665.405 296.952 C 665.406 286.567 665.385 276.182 665.353 265.796 C 665.327 256.867 665.316 247.938 665.317 239.008 C 665.318 233.681 665.312 228.354 665.291 223.027 C 665.272 218.013 665.272 213 665.286 207.986 C 665.288 206.153 665.284 204.319 665.271 202.485 C 665.189 189.13 665.977 178.319 675.685 168.214 C 680.884 163.54 686.192 161.227 693.182 161.188 Z" fill="#404040" style="stroke-width: 1;"/>
  <path d="M 693.182 161.188 C 694.058 161.18 694.934 161.173 695.836 161.166 C 696.79 161.163 697.743 161.16 698.725 161.158 C 699.735 161.151 700.746 161.145 701.786 161.138 C 705.13 161.118 708.474 161.106 711.818 161.096 C 712.962 161.092 714.105 161.088 715.283 161.084 C 721.337 161.063 727.39 161.049 733.443 161.04 C 739.686 161.028 745.929 160.994 752.172 160.954 C 756.981 160.928 761.789 160.92 766.598 160.916 C 768.899 160.911 771.199 160.9 773.5 160.881 C 776.726 160.857 779.952 160.858 783.178 160.865 C 784.121 160.852 785.065 160.839 786.036 160.826 C 795.298 160.898 802.26 164.124 808.986 170.421 C 818.86 180.984 818.071 193.772 818.05 207.364 C 818.054 209.191 818.059 211.019 818.065 212.846 C 818.079 217.79 818.079 222.734 818.077 227.679 C 818.076 231.814 818.081 235.949 818.085 240.084 C 818.096 249.842 818.097 259.601 818.091 269.359 C 818.085 279.411 818.097 289.462 818.118 299.514 C 818.136 308.159 818.142 316.805 818.139 325.451 C 818.137 330.607 818.14 335.764 818.153 340.921 C 818.166 345.771 818.164 350.621 818.151 355.471 C 818.149 357.246 818.151 359.02 818.16 360.795 C 818.22 374.648 817.317 385.331 807.588 395.96 C 799.843 403.488 790.583 404.481 780.278 404.512 C 779.328 404.518 778.378 404.525 777.399 404.532 C 774.26 404.551 771.121 404.563 767.982 404.573 C 766.907 404.577 765.832 404.581 764.724 404.585 C 759.033 404.606 753.341 404.62 747.65 404.63 C 741.787 404.641 735.924 404.675 730.061 404.715 C 725.539 404.741 721.017 404.75 716.495 404.753 C 714.335 404.758 712.174 404.77 710.014 404.788 C 706.982 404.813 703.951 404.812 700.919 404.805 C 699.596 404.824 699.596 404.824 698.246 404.843 C 688.922 404.766 681.276 401.583 674.529 395.19 C 667.747 388.015 665.465 381.226 665.508 371.24 C 665.503 370.454 665.499 369.667 665.494 368.857 C 665.481 366.237 665.483 363.618 665.485 360.998 C 665.479 359.113 665.472 357.229 665.464 355.344 C 665.447 350.234 665.442 345.125 665.441 340.015 C 665.439 336.819 665.435 333.623 665.43 330.428 C 665.411 319.269 665.403 308.111 665.405 296.952 C 665.406 286.567 665.385 276.182 665.353 265.796 C 665.327 256.867 665.316 247.938 665.317 239.008 C 665.318 233.681 665.312 228.354 665.291 223.027 C 665.272 218.013 665.272 213 665.286 207.986 C 665.288 206.153 665.284 204.319 665.271 202.485 C 665.189 189.13 665.977 178.319 675.685 168.214 C 680.884 163.54 686.192 161.227 693.182 161.188 Z M 680.525 179.71 C 680.046 180.254 679.566 180.798 679.072 181.358 C 675.859 186.255 675.482 191.346 675.508 197.05 C 675.503 197.808 675.499 198.565 675.494 199.346 C 675.481 201.875 675.483 204.403 675.485 206.931 C 675.479 208.749 675.472 210.566 675.464 212.383 C 675.447 217.313 675.442 222.243 675.441 227.173 C 675.439 230.255 675.435 233.338 675.43 236.42 C 675.411 247.182 675.403 257.944 675.405 268.706 C 675.406 278.725 675.385 288.744 675.353 298.763 C 675.327 307.374 675.316 315.986 675.317 324.598 C 675.318 329.737 675.312 334.875 675.291 340.014 C 675.272 344.851 675.272 349.686 675.286 354.523 C 675.288 356.292 675.284 358.062 675.271 359.832 C 674.917 374.562 674.917 374.562 681.525 387.256 C 687.588 392.928 693.282 393.633 701.304 393.625 C 702.257 393.632 703.211 393.639 704.193 393.646 C 707.342 393.665 710.49 393.668 713.638 393.671 C 715.832 393.677 718.025 393.684 720.218 393.691 C 724.816 393.703 729.413 393.706 734.01 393.705 C 739.891 393.705 745.772 393.732 751.653 393.767 C 756.184 393.789 760.714 393.793 765.245 393.792 C 767.412 393.794 769.58 393.803 771.748 393.819 C 774.785 393.838 777.821 393.833 780.858 393.821 C 781.747 393.832 782.637 393.843 783.553 393.855 C 790.357 393.786 795.564 392.049 800.799 387.624 C 801.245 387.075 801.691 386.525 802.15 385.96 C 802.612 385.416 803.073 384.872 803.549 384.311 C 806.655 379.306 807.068 374.245 807.043 368.492 C 807.049 367.335 807.049 367.335 807.056 366.155 C 807.069 363.58 807.067 361.006 807.066 358.431 C 807.072 356.581 807.078 354.731 807.086 352.881 C 807.104 347.862 807.108 342.844 807.11 337.825 C 807.111 334.688 807.115 331.551 807.121 328.415 C 807.139 317.467 807.147 306.52 807.146 295.572 C 807.145 285.373 807.166 275.175 807.197 264.976 C 807.223 256.215 807.234 247.453 807.233 238.691 C 807.232 233.46 807.238 228.23 807.259 222.999 C 807.279 218.079 807.279 213.16 807.264 208.24 C 807.262 206.437 807.267 204.634 807.279 202.832 C 807.294 200.364 807.285 197.899 807.27 195.432 C 807.28 194.724 807.29 194.016 807.301 193.286 C 807.22 187.388 805.402 182.12 801.328 177.8 C 797.279 174.304 793.799 172.091 788.424 172.067 C 787.129 172.054 787.129 172.054 785.808 172.041 C 784.868 172.042 783.929 172.043 782.961 172.044 C 781.966 172.037 780.97 172.031 779.944 172.024 C 776.651 172.005 773.358 172.001 770.064 171.999 C 767.775 171.992 765.486 171.986 763.197 171.979 C 758.397 171.967 753.597 171.963 748.797 171.964 C 742.647 171.964 736.498 171.937 730.349 171.903 C 725.621 171.88 720.892 171.876 716.163 171.877 C 713.896 171.875 711.629 171.866 709.362 171.851 C 706.191 171.831 703.02 171.837 699.848 171.849 C 698.913 171.838 697.977 171.826 697.014 171.815 C 689.585 171.887 685.426 173.974 680.525 179.71 Z" fill="#F6F5F4" style="stroke-width: 1;"/>
  <path d="M 698.775 200.335 C 726.825 200.335 754.875 200.335 783.775 200.335 C 783.775 212.215 783.775 224.095 783.775 236.335 C 755.725 236.335 727.675 236.335 698.775 236.335 C 698.775 224.455 698.775 212.575 698.775 200.335 Z" fill="#444444" style="stroke-width: 1;"/>
  <path d="M 704.077 189.174 C 704.936 189.169 705.794 189.164 706.679 189.159 C 709.529 189.144 712.378 189.137 715.228 189.132 C 717.206 189.126 719.185 189.12 721.163 189.114 C 725.316 189.104 729.468 189.098 733.621 189.094 C 738.939 189.089 744.256 189.065 749.573 189.036 C 753.662 189.018 757.751 189.013 761.84 189.011 C 763.8 189.008 765.759 189 767.719 188.987 C 770.465 188.97 773.21 188.972 775.956 188.978 C 776.763 188.969 777.571 188.96 778.403 188.95 C 783.261 188.986 786.559 189.665 790.775 192.335 C 794.975 197.086 795.37 200.904 795.306 206.952 C 795.312 208.176 795.312 208.176 795.318 209.425 C 795.321 211.144 795.313 212.864 795.297 214.583 C 795.275 217.195 795.296 219.805 795.322 222.417 C 795.319 224.095 795.314 225.774 795.306 227.452 C 795.314 228.223 795.323 228.994 795.331 229.789 C 795.239 235.218 794.166 239.97 790.775 244.335 C 786.389 247.906 782.333 247.768 776.933 247.739 C 775.613 247.749 775.613 247.749 774.266 247.76 C 771.363 247.778 768.46 247.774 765.556 247.768 C 763.535 247.773 761.514 247.778 759.493 247.784 C 755.26 247.793 751.027 247.791 746.793 247.781 C 741.369 247.769 735.946 247.789 730.522 247.819 C 726.349 247.837 722.176 247.837 718.003 247.831 C 716.004 247.831 714.004 247.837 712.004 247.849 C 709.208 247.864 706.413 247.854 703.617 247.836 C 702.379 247.851 702.379 247.851 701.117 247.866 C 697.139 247.815 695.224 247.621 691.785 245.428 C 688.97 242.496 688.646 240.915 688.582 236.964 C 688.566 236.06 688.55 235.155 688.534 234.223 C 688.489 230.084 688.448 225.945 688.425 221.805 C 688.408 219.622 688.381 217.438 688.343 215.255 C 688.288 212.108 688.266 208.963 688.252 205.815 C 688.229 204.841 688.206 203.867 688.183 202.863 C 688.198 198.162 688.216 196.053 691.183 192.242 C 695.531 189.043 698.829 189.181 704.077 189.174 Z M 698.775 200.335 C 698.775 212.215 698.775 224.095 698.775 236.335 C 726.825 236.335 754.875 236.335 783.775 236.335 C 783.775 224.455 783.775 212.575 783.775 200.335 C 755.725 200.335 727.675 200.335 698.775 200.335 Z" fill="#F2F2F0" style="stroke-width: 1;"/>
  <path d="M 696.836 323.954 C 697.661 323.945 698.485 323.937 699.334 323.928 C 700.235 323.934 701.136 323.94 702.064 323.946 C 703.016 323.941 703.967 323.936 704.947 323.931 C 708.098 323.917 711.249 323.926 714.4 323.936 C 716.586 323.934 718.772 323.931 720.957 323.928 C 725.54 323.923 730.124 323.93 734.707 323.944 C 740.588 323.961 746.47 323.951 752.351 323.933 C 756.865 323.922 761.379 323.925 765.893 323.933 C 768.062 323.935 770.231 323.933 772.4 323.926 C 775.429 323.918 778.457 323.93 781.486 323.946 C 782.387 323.94 783.288 323.934 784.216 323.928 C 785.04 323.937 785.865 323.945 786.714 323.954 C 787.43 323.955 788.146 323.956 788.884 323.957 C 791.367 324.453 792.278 325.319 793.775 327.335 C 793.65 330.397 793.65 330.397 792.775 333.335 C 789.737 335.36 789.158 335.585 785.752 335.595 C 784.936 335.602 784.12 335.61 783.279 335.617 C 781.942 335.613 781.942 335.613 780.578 335.609 C 779.165 335.617 779.165 335.617 777.724 335.625 C 774.606 335.639 771.487 335.638 768.369 335.635 C 766.206 335.639 764.042 335.644 761.879 335.648 C 757.343 335.656 752.807 335.656 748.271 335.65 C 742.45 335.645 736.629 335.661 730.808 335.685 C 726.34 335.699 721.872 335.7 717.405 335.697 C 715.258 335.698 713.111 335.703 710.965 335.713 C 707.967 335.725 704.97 335.719 701.972 335.707 C 701.081 335.715 700.189 335.722 699.271 335.73 C 698.047 335.72 698.047 335.72 696.798 335.709 C 696.09 335.709 695.381 335.709 694.651 335.709 C 692.193 335.218 691.298 334.29 689.775 332.335 C 689.4 329.835 689.4 329.835 689.775 327.335 C 691.937 324.555 693.357 323.959 696.836 323.954 Z" fill="#F7F7F5" style="stroke-width: 1;"/>
  <path d="M 701.951 346.158 C 702.902 346.151 703.853 346.145 704.833 346.138 C 707.99 346.118 711.146 346.106 714.302 346.096 C 715.378 346.092 716.454 346.088 717.562 346.084 C 723.252 346.063 728.941 346.049 734.631 346.04 C 740.521 346.028 746.41 345.994 752.3 345.954 C 756.818 345.928 761.336 345.92 765.855 345.916 C 768.026 345.911 770.198 345.9 772.37 345.881 C 775.404 345.857 778.436 345.858 781.47 345.865 C 782.373 345.852 783.275 345.839 784.205 345.826 C 790.262 345.877 790.262 345.877 792.864 348.2 C 794.071 351.028 793.83 352.472 792.775 355.335 C 788.79 357.992 785.313 357.622 780.686 357.609 C 779.29 357.617 779.29 357.617 777.866 357.625 C 774.785 357.639 771.704 357.638 768.623 357.635 C 766.484 357.639 764.346 357.644 762.207 357.648 C 757.723 357.656 753.238 357.656 748.753 357.65 C 743.001 357.645 737.25 357.661 731.499 357.685 C 727.082 357.699 722.664 357.7 718.247 357.697 C 716.127 357.698 714.006 357.703 711.885 357.713 C 708.921 357.725 705.958 357.719 702.994 357.707 C 702.116 357.715 701.237 357.722 700.332 357.73 C 694.356 357.678 694.356 357.678 691.199 355.811 C 690.729 355.324 690.259 354.837 689.775 354.335 C 690.031 351.992 690.368 349.656 690.775 347.335 C 694.212 345.616 698.167 346.169 701.951 346.158 Z" fill="#F5F5F3" style="stroke-width: 1;"/>
  <path d="M 700.929 302.174 C 701.89 302.169 702.851 302.164 703.841 302.159 C 707.035 302.144 710.229 302.137 713.424 302.132 C 715.635 302.126 717.846 302.12 720.057 302.114 C 724.699 302.104 729.341 302.098 733.983 302.094 C 739.941 302.089 745.899 302.065 751.857 302.036 C 756.426 302.018 760.994 302.013 765.563 302.011 C 767.76 302.008 769.957 302 772.154 301.987 C 775.224 301.97 778.293 301.972 781.363 301.978 C 782.276 301.969 783.189 301.96 784.13 301.95 C 785.384 301.959 785.384 301.959 786.663 301.967 C 787.389 301.966 788.115 301.964 788.863 301.963 C 791.351 302.447 792.266 303.329 793.775 305.335 C 793.531 308.677 793.17 309.94 790.775 312.335 C 787.652 312.534 784.617 312.607 781.492 312.593 C 780.048 312.599 780.048 312.599 778.575 312.604 C 775.381 312.613 772.188 312.607 768.994 312.6 C 766.782 312.602 764.57 312.604 762.358 312.606 C 757.718 312.609 753.077 312.605 748.437 312.595 C 742.478 312.584 736.519 312.591 730.56 312.603 C 725.991 312.61 721.422 312.608 716.853 312.602 C 714.655 312.601 712.458 312.603 710.26 312.607 C 707.193 312.612 704.126 312.605 701.058 312.593 C 700.143 312.598 699.228 312.602 698.284 312.606 C 692.004 312.563 692.004 312.563 689.775 310.335 C 690.566 301.321 692.644 302.184 700.929 302.174 Z" fill="#F6F5F4" style="stroke-width: 1;"/>
  <path d="M 676.775 185.335 C 677.765 185.335 678.755 185.335 679.775 185.335 C 679.445 248.695 679.115 312.055 678.775 377.335 C 678.115 377.335 677.455 377.335 676.775 377.335 C 675.287 374.358 675.638 371.323 675.648 368.06 C 675.647 367.301 675.645 366.543 675.643 365.762 C 675.639 363.207 675.643 360.652 675.646 358.097 C 675.644 356.271 675.643 354.444 675.64 352.618 C 675.636 347.647 675.638 342.676 675.641 337.705 C 675.643 332.51 675.641 327.314 675.639 322.119 C 675.638 313.391 675.64 304.664 675.645 295.936 C 675.65 285.84 675.648 275.743 675.643 265.647 C 675.638 256.988 675.638 248.329 675.64 239.67 C 675.642 234.494 675.642 229.319 675.639 224.143 C 675.636 219.276 675.638 214.408 675.644 209.541 C 675.645 207.753 675.645 205.965 675.642 204.176 C 675.64 201.739 675.643 199.301 675.648 196.864 C 675.646 196.153 675.644 195.442 675.641 194.71 C 675.654 191.439 675.769 188.463 676.775 185.335 Z" fill="#494949" style="stroke-width: 1;"/>
  <path d="M 745.775 259.335 C 749.484 261.121 751.315 262.697 753.713 266.022 C 755.124 270.421 755.096 273.906 753.775 278.335 C 751.979 281.339 749.959 283.743 746.775 285.335 C 742.473 285.956 738.441 286.305 734.595 284.065 C 731.516 281.439 729.066 279.348 728.467 275.198 C 728.216 270.237 728.346 267.147 731.65 263.272 C 735.923 258.886 739.82 258.623 745.775 259.335 Z" fill="#F4F4F2" style="stroke-width: 1;"/>
  <path d="M 782.775 259.335 C 787.163 261.529 789.868 263.78 791.775 268.335 C 792.344 273.548 791.691 276.961 788.775 281.335 C 784.895 284.763 781.808 286.003 776.732 285.721 C 772.408 284.867 769.691 282.403 766.9 279.147 C 765.286 275.111 764.849 271.609 765.775 267.335 C 770.097 260.223 774.647 258.349 782.775 259.335 Z" fill="#F5F4F3" style="stroke-width: 1;"/>
  <path d="M 707.775 259.335 C 711.899 261.115 714.572 263.417 716.775 267.335 C 717.511 271.797 717.872 276.25 715.717 280.346 C 713.358 283.237 711.352 285.162 707.603 285.573 C 701.772 285.741 698.352 285.339 693.775 281.335 C 690.794 276.863 690.914 272.572 691.775 267.335 C 695.624 260.558 700.058 258.517 707.775 259.335 Z" fill="#F5F5F3" style="stroke-width: 1;"/>
  <path d="M 698.775 200.335 C 726.825 200.335 754.875 200.335 783.775 200.335 C 783.775 200.995 783.775 201.655 783.775 202.335 C 756.385 202.335 728.995 202.335 700.775 202.335 C 700.775 213.225 700.775 224.115 700.775 235.335 C 727.835 235.335 754.895 235.335 782.775 235.335 C 782.775 235.665 782.775 235.995 782.775 236.335 C 755.055 236.335 727.335 236.335 698.775 236.335 C 698.775 224.455 698.775 212.575 698.775 200.335 Z" fill="#2E2F2F" style="stroke-width: 1;"/>
  <path d="M 701.775 401.335 C 706.065 401.335 710.355 401.335 714.775 401.335 C 710.275 404.71 710.275 404.71 706.009 404.628 C 705.12 404.618 704.231 404.608 703.314 404.598 C 702.394 404.573 701.473 404.548 700.525 404.522 C 699.589 404.509 698.653 404.495 697.689 404.481 C 695.384 404.446 693.08 404.397 690.775 404.335 C 690.775 404.005 690.775 403.675 690.775 403.335 C 696.22 402.84 696.22 402.84 701.775 402.335 C 701.775 402.005 701.775 401.675 701.775 401.335 Z" fill="#EEEEEC" style="stroke-width: 1;"/>
</svg>