<?xml version="1.0" encoding="utf-8"?>
<svg xmlns="http://www.w3.org/2000/svg" viewBox="-23.2549 -982.501 155.6423 240.9811" width="155.642px" height="240.981px">
  <path d="M 56.145 -981.9 C 74.935 -972.93 89.705 -951.67 99.145 -933.9 C 99.475 -932.91 99.805 -931.92 100.145 -930.9 C 95.525 -930.24 90.905 -929.58 86.145 -928.9 C 85.045 -930.59 83.955 -932.28 82.825 -934.02 C 75.935 -944.34 68.475 -954.64 59.145 -962.9 C 58.515 -963.48 57.885 -964.07 57.235 -964.67 C 55.215 -966.08 55.215 -966.08 52.835 -966 C 48.717 -964.32 46.087 -961.43 43.017 -958.27 C 42.357 -957.6 41.697 -956.92 41.007 -956.22 C 16.807 -931 0.917 -896.23 -4.853 -861.9 C -4.153 -862.64 -3.453 -863.37 -2.723 -864.14 C 4.717 -871.83 12.557 -878.53 21.147 -884.9 C 21.777 -885.37 22.407 -885.85 23.047 -886.33 C 48.237 -905.21 78.725 -923.67 111.145 -921.9 C 117.225 -920.81 122.085 -917.47 126.145 -912.9 C 131.795 -904.61 132.985 -896.84 132.145 -886.9 C 125.375 -856.58 96.865 -832.27 72.145 -815.9 C 66.945 -812.63 61.595 -809.7 56.145 -806.9 C 55.525 -806.58 54.915 -806.25 54.285 -805.92 C 40.867 -798.96 27.357 -794.49 12.147 -794.4 C 11.297 -794.39 10.447 -794.39 9.577 -794.38 C -0.693 -794.59 -8.293 -797.2 -15.723 -804.36 C -24.513 -814.8 -23.643 -829.67 -22.653 -842.53 C -18.923 -881.66 -5.343 -919.29 18.147 -950.9 C 19.197 -952.32 19.197 -952.32 20.277 -953.77 C 24.897 -959.68 30.067 -965.01 35.327 -970.33 C 36.007 -971.02 36.687 -971.71 37.387 -972.42 C 48.267 -983.23 48.267 -983.23 56.145 -981.9 Z" fill="#F4F3F1" style="stroke-width: 1;" transform="matrix(1, 0, 0, 1, 0, 2.2737367544323206e-13)"/>
  <path d="M 112.645 -906.77 C 116.665 -903.83 118.615 -900.92 119.485 -895.94 C 120.525 -881.53 109.195 -867.9 100.325 -857.6 C 80.985 -835.55 56.115 -818.82 28.147 -809.9 C 27.457 -809.65 26.767 -809.4 26.057 -809.15 C 18.347 -806.71 6.807 -806.14 -0.603 -809.58 C -6.963 -814.11 -8.883 -818.36 -10.223 -825.96 C -10.893 -833.36 -7.263 -838.25 -2.853 -843.9 C 0.637 -848.07 4.367 -851.99 8.147 -855.9 C 9.127 -856.96 9.127 -856.96 10.137 -858.05 C 27.927 -876.76 52.615 -891.73 76.145 -901.9 C 76.975 -902.26 77.815 -902.62 78.675 -902.99 C 88.925 -907.27 102.115 -912.74 112.645 -906.77 Z" fill="#424242" style="stroke-width: 1;" transform="matrix(1, 0, 0, 1, 0, 2.2737367544323206e-13)"/>
  <path d="M 123.145 -852.9 C 123.805 -852.9 124.465 -852.9 125.145 -852.9 C 131.265 -832.06 124.905 -803.64 115.185 -784.87 C 104.655 -765.56 89.135 -750.78 67.995 -743.87 C 51.455 -739.44 34.697 -741.26 19.677 -749.44 C 3.807 -758.66 -9.073 -774.54 -14.853 -791.9 C -12.713 -791.18 -10.563 -790.46 -8.423 -789.72 C -5.923 -788.87 -5.923 -788.87 -3.533 -788.42 C 3.117 -786.88 5.477 -783.27 9.197 -777.74 C 16.047 -767.72 27.027 -759.91 38.967 -757.25 C 51.005 -755.32 63.495 -755.64 74.145 -761.9 C 75.105 -762.44 76.065 -762.98 77.055 -763.54 C 94.335 -773.87 105.235 -792.55 110.435 -811.72 C 111.345 -816.21 111.445 -820.73 111.665 -825.29 C 112.475 -841.68 112.475 -841.68 117.705 -847.33 C 119.155 -848.56 120.625 -849.76 122.145 -850.9 C 122.475 -851.56 122.805 -852.22 123.145 -852.9 Z" fill="#F3F2F1" style="stroke-width: 1;" transform="matrix(1, 0, 0, 1, 0, 2.2737367544323206e-13)"/>
  <path d="M 26.147 -747.9 C 29.777 -747.24 33.407 -746.58 37.147 -745.9 C 37.477 -744.91 37.807 -743.92 38.147 -742.9 C 36.327 -743.35 34.517 -743.81 32.707 -744.27 C 31.697 -744.53 30.687 -744.78 29.647 -745.05 C 27.147 -745.9 27.147 -745.9 26.147 -747.9 Z" fill="#ECEBEA" style="stroke-width: 1;" transform="matrix(1, 0, 0, 1, 0, 2.2737367544323206e-13)"/>
  <path d="M 123.145 -852.9 C 123.805 -852.9 124.465 -852.9 125.145 -852.9 C 125.145 -849.6 125.145 -846.3 125.145 -842.9 C 124.815 -842.9 124.485 -842.9 124.145 -842.9 C 124.145 -844.88 124.145 -846.86 124.145 -848.9 C 122.825 -847.91 121.505 -846.92 120.145 -845.9 C 120.755 -848.86 121.395 -850.28 123.145 -852.9 Z" fill="#FAFAF9" style="stroke-width: 1;" transform="matrix(1, 0, 0, 1, 0, 2.2737367544323206e-13)"/>
  <path d="M -16.853 -873.9 C -14.853 -871.9 -14.853 -871.9 -14.853 -868.9 C -15.513 -868.9 -16.173 -868.9 -16.853 -868.9 C -16.523 -867.58 -16.193 -866.26 -15.853 -864.9 C -16.843 -864.9 -17.833 -864.9 -18.853 -864.9 C -18.193 -867.87 -17.533 -870.84 -16.853 -873.9 Z" fill="#EDECEC" style="stroke-width: 1;" transform="matrix(1, 0, 0, 1, 0, 2.2737367544323206e-13)"/>
  <path d="M 113.145 -920.9 C 117.575 -919.69 120.125 -918.38 123.145 -914.9 C 119.195 -915.46 116.395 -916.58 113.145 -918.9 C 113.145 -919.56 113.145 -920.22 113.145 -920.9 Z" fill="#EBEAEA" style="stroke-width: 1;" transform="matrix(1, 0, 0, 1, 0, 2.2737367544323206e-13)"/>
  <path d="M 38.147 -896.9 C 38.807 -896.24 39.467 -895.58 40.147 -894.9 C 38.267 -893.83 38.267 -893.83 36.147 -892.9 C 35.487 -893.23 34.827 -893.56 34.147 -893.9 C 35.467 -894.89 36.787 -895.88 38.147 -896.9 Z M 32.147 -892.9 C 32.807 -892.57 33.467 -892.24 34.147 -891.9 C 33.157 -891.9 32.167 -891.9 31.147 -891.9 C 31.477 -892.23 31.807 -892.56 32.147 -892.9 Z M 29.147 -890.9 C 31.147 -889.9 31.147 -889.9 31.147 -889.9 L 29.147 -890.9 Z" fill="#EAEAE9" style="stroke-width: 1;" transform="matrix(1, 0, 0, 1, 0, 2.2737367544323206e-13)"/>
</svg>