<?xml version="1.0" encoding="utf-8"?>
<svg xmlns="http://www.w3.org/2000/svg" viewBox="702.775 -144.66 62 113.995" width="62px" height="113.995px">
  <path d="M 732.775 -144.66 C 733.435 -144.66 734.095 -144.66 734.775 -144.66 C 735.823 -136.29 736.866 -127.92 737.904 -119.55 C 738.387 -115.66 738.87 -111.78 739.357 -107.89 C 739.827 -104.14 740.294 -100.38 740.758 -96.626 C 740.935 -95.197 741.114 -93.767 741.294 -92.337 C 741.546 -90.33 741.793 -88.322 742.041 -86.313 C 742.254 -84.601 742.254 -84.601 742.471 -82.854 C 742.765 -79.769 742.83 -76.763 742.775 -73.665 C 743.358 -73.567 743.94 -73.469 744.541 -73.368 C 751.525 -72.095 758.089 -70.032 764.775 -67.665 C 761.064 -64.506 757.273 -62.179 752.963 -59.915 C 751.801 -59.302 750.64 -58.688 749.443 -58.056 C 748.122 -57.368 748.122 -57.368 746.775 -56.665 C 746.836 -55.938 746.896 -55.211 746.959 -54.462 C 747.867 -43.564 747.867 -43.564 748.775 -32.665 C 745.115 -36.052 742.367 -39.851 739.525 -43.915 C 739.066 -44.565 738.607 -45.215 738.134 -45.884 C 737.011 -47.475 735.893 -49.07 734.775 -50.665 C 731.154 -47.306 728.41 -43.561 725.588 -39.54 C 725.137 -38.907 724.687 -38.274 724.222 -37.622 C 721.818 -34.255 721.818 -34.255 719.775 -30.665 C 719.115 -30.995 718.455 -31.325 717.775 -31.665 C 719.755 -44.04 719.755 -44.04 721.775 -56.665 C 719.795 -57.325 717.815 -57.985 715.775 -58.665 C 713.461 -59.83 711.169 -61.04 708.9 -62.29 C 707.171 -63.238 707.171 -63.238 705.408 -64.204 C 704.539 -64.686 703.67 -65.169 702.775 -65.665 C 704.828 -67.718 705.913 -68.231 708.584 -69.173 C 709.331 -69.437 710.078 -69.702 710.847 -69.974 C 711.628 -70.243 712.408 -70.513 713.213 -70.79 C 713.989 -71.067 714.766 -71.345 715.566 -71.63 C 721.386 -73.665 721.386 -73.665 724.775 -73.665 C 724.745 -74.499 724.745 -74.499 724.714 -75.349 C 724.562 -83.008 725.491 -90.407 726.525 -97.986 C 726.705 -99.34 726.884 -100.69 727.063 -102.05 C 727.531 -105.57 728.006 -109.1 728.484 -112.63 C 728.971 -116.24 729.451 -119.86 729.931 -123.47 C 730.872 -130.54 731.821 -137.6 732.775 -144.66 Z" fill="#F5F5F3" style="stroke-width: 1;" transform="matrix(1, 0, 0, 1, 0, 5.684341886080802e-14)"/>
</svg>