<?xml version="1.0" encoding="utf-8"?>
<svg xmlns="http://www.w3.org/2000/svg" viewBox="-288.9489 78.2828 156.9745 205.4852" width="156.975px" height="205.485px">
  <path d="M -162.95 94.147 C -161.36 95.485 -159.77 96.839 -158.2 98.21 C -157.6 98.729 -157 99.249 -156.38 99.784 C -141.65 113.445 -133.23 132.678 -132.06 152.631 C -131.12 178.805 -137.97 200.338 -150.2 223.21 C -150.69 224.119 -150.69 224.119 -151.18 225.046 C -161.98 245.148 -179.17 273.447 -201.11 282.393 C -204.48 283.283 -207.47 283.58 -210.95 283.647 C -212.08 283.687 -213.21 283.727 -214.38 283.768 C -223.88 282.381 -230.45 276.795 -236.95 270.085 C -238.11 268.901 -238.11 268.901 -239.3 267.693 C -259.1 247.03 -274.37 220.921 -283.58 193.835 C -283.82 193.134 -284.06 192.433 -284.3 191.711 C -290.53 172.43 -290.5 150.443 -284.2 131.21 C -283.87 130.151 -283.53 129.093 -283.18 128.003 C -275.96 108.408 -260.23 94.039 -241.89 84.96 C -215.91 73.635 -185.35 76.728 -162.95 94.147 Z" fill="#FDFDFC" style="stroke-width: 1;" transform="matrix(1, 0, 0, 1, 0, 5.684341886080802e-14)"/>
  <path d="M -146.2 157.21 C -143.43 159.679 -143.21 161.122 -142.95 164.862 C -143.01 166.292 -143.1 167.72 -143.2 169.147 C -143.28 170.276 -143.28 170.276 -143.36 171.428 C -144.31 182.037 -148.1 191.258 -155.2 199.21 C -155.92 200.08 -155.92 200.08 -156.65 200.968 C -165.03 210.363 -178.75 216.885 -191.2 218.21 C -191.88 218.286 -192.55 218.362 -193.24 218.44 C -195.39 218.585 -195.39 218.585 -199.2 218.21 C -203.53 212.799 -202.88 206.79 -202.2 200.21 C -198.93 186.285 -190.07 173.793 -178.2 165.96 C -168.89 160.543 -157.12 155.545 -146.2 157.21 Z" fill="#3B3B3C" style="stroke-width: 1;" transform="matrix(1, 0, 0, 1, 0, 5.684341886080802e-14)"/>
  <path d="M -264.05 157.671 C -261.8 158.297 -259.6 159.008 -257.39 159.772 C -256.61 160.042 -255.82 160.311 -255.01 160.589 C -240.56 165.76 -230.26 174.612 -223.2 188.21 C -222.79 188.956 -222.37 189.702 -221.95 190.471 C -219.27 195.982 -218.83 201.114 -218.77 207.147 C -218.76 207.894 -218.75 208.64 -218.74 209.409 C -218.78 212.411 -218.83 214.647 -220.52 217.19 C -225.02 219.914 -231.12 218.148 -235.95 217.085 C -250.97 213.019 -263.31 204.71 -271.2 191.21 C -276.3 181.859 -278.71 170.844 -277.2 160.21 C -274.58 155.45 -268.62 156.693 -264.05 157.671 Z" fill="#3B3C3C" style="stroke-width: 1;" transform="matrix(1, 0, 0, 1, 0, 5.684341886080802e-14)"/>
  <path d="M -200.77 238.96 C -197.2 239.21 -197.2 239.21 -194.2 241.21 C -193.89 243.71 -193.89 243.71 -194.2 246.21 C -196.2 248.21 -196.2 248.21 -198.3 248.475 C -199.09 248.47 -199.89 248.465 -200.7 248.46 C -201.5 248.465 -202.29 248.47 -203.11 248.475 C -205.2 248.21 -205.2 248.21 -207.2 246.21 C -206.72 241.356 -205.93 239.335 -200.77 238.96 Z" fill="#303030" style="stroke-width: 1;" transform="matrix(1, 0, 0, 1, 0, 5.684341886080802e-14)"/>
  <path d="M -220.27 240.022 C -219.37 240.008 -218.47 239.994 -217.55 239.979 C -215.2 240.21 -215.2 240.21 -213.2 242.21 C -213.76 246.765 -213.76 246.765 -215.2 248.21 C -217.2 248.378 -217.2 248.378 -219.64 248.397 C -220.85 248.418 -220.85 248.418 -222.07 248.44 C -224.2 248.21 -224.2 248.21 -226.2 246.21 C -226.39 243.647 -226.39 243.647 -226.2 241.21 C -224.54 239.544 -222.54 240.039 -220.27 240.022 Z" fill="#303030" style="stroke-width: 1;" transform="matrix(1, 0, 0, 1, 0, 5.684341886080802e-14)"/>
</svg>